CascadiaHB.glyphspackage
{
color = 10;
glyphname = divide;
layers = (
{
layerId = master01;
paths = (
{
closed = 1;
nodes = (
"1076 664 LINE",
"1076 754 LINE",
"124 754 LINE",
"124 664 LINE"
);
},
{
closed = 1;
nodes = (
"658 187 OFFCURVE",
"705 234 OFFCURVE",
"705 291 CURVE SMOOTH",
"705 349 OFFCURVE",
"658 396 OFFCURVE",
"600 396 CURVE SMOOTH",
"542 396 OFFCURVE",
"495 349 OFFCURVE",
"495 291 CURVE SMOOTH",
"495 234 OFFCURVE",
"542 187 OFFCURVE",
"600 187 CURVE SMOOTH"
);
},
{
closed = 1;
nodes = (
"657 1020 OFFCURVE",
"705 1067 OFFCURVE",
"705 1125 CURVE SMOOTH",
"705 1182 OFFCURVE",
"658 1229 OFFCURVE",
"600 1229 CURVE SMOOTH",
"542 1229 OFFCURVE",
"495 1182 OFFCURVE",
"495 1125 CURVE SMOOTH",
"495 1067 OFFCURVE",
"542 1020 OFFCURVE",
"600 1020 CURVE SMOOTH"
);
}
);
width = 1200;
},
{
layerId = "1F90C004-9C90-48FA-B407-176B3E9F1E65";
paths = (
{
closed = 1;
nodes = (
"1100 616 LINE",
"1100 802 LINE",
"100 802 LINE",
"100 616 LINE"
);
},
{
closed = 1;
nodes = (
"678 151 OFFCURVE",
"741 214 OFFCURVE",
"741 291 CURVE SMOOTH",
"741 369 OFFCURVE",
"678 432 OFFCURVE",
"600 432 CURVE SMOOTH",
"522 432 OFFCURVE",
"459 369 OFFCURVE",
"459 291 CURVE SMOOTH",
"459 214 OFFCURVE",
"522 151 OFFCURVE",
"600 151 CURVE SMOOTH"
);
},
{
closed = 1;
nodes = (
"677 984 OFFCURVE",
"741 1047 OFFCURVE",
"741 1125 CURVE SMOOTH",
"741 1202 OFFCURVE",
"678 1265 OFFCURVE",
"600 1265 CURVE SMOOTH",
"522 1265 OFFCURVE",
"459 1202 OFFCURVE",
"459 1125 CURVE SMOOTH",
"459 1047 OFFCURVE",
"522 984 OFFCURVE",
"600 984 CURVE SMOOTH"
);
}
);
width = 1200;
},
{
layerId = "8E053A5E-67DA-4970-A6F5-068DBFE5AD21";
paths = (
{
closed = 1;
nodes = (
"1100 584 LINE",
"1100 834 LINE",
"100 834 LINE",
"100 584 LINE"
);
},
{
closed = 1;
nodes = (
"699 100 OFFCURVE",
"780 181 OFFCURVE",
"780 279 CURVE SMOOTH",
"780 378 OFFCURVE",
"699 459 OFFCURVE",
"600 459 CURVE SMOOTH",
"501 459 OFFCURVE",
"420 378 OFFCURVE",
"420 279 CURVE SMOOTH",
"420 181 OFFCURVE",
"501 100 OFFCURVE",
"600 100 CURVE SMOOTH"
);
},
{
closed = 1;
nodes = (
"698 959 OFFCURVE",
"780 1040 OFFCURVE",
"780 1139 CURVE SMOOTH",
"780 1237 OFFCURVE",
"699 1318 OFFCURVE",
"600 1318 CURVE SMOOTH",
"501 1318 OFFCURVE",
"420 1237 OFFCURVE",
"420 1139 CURVE SMOOTH",
"420 1040 OFFCURVE",
"501 959 OFFCURVE",
"600 959 CURVE SMOOTH"
);
}
);
width = 1200;
}
);
unicode = 00F7;
}
{
color = 10;
glyphname = slash;
layers = (
{
layerId = master01;
paths = (
{
closed = 1;
nodes = (
"266 -190 LINE",
"1136 1610 LINE",
"1038 1610 LINE",
"168 -190 LINE"
);
}
);
width = 1200;
},
{
layerId = "1F90C004-9C90-48FA-B407-176B3E9F1E65";
paths = (
{
closed = 1;
nodes = (
"326 -190 LINE",
"1130 1610 LINE",
"918 1610 LINE",
"114 -190 LINE"
);
}
);
width = 1200;
},
{
layerId = "8E053A5E-67DA-4970-A6F5-068DBFE5AD21";
paths = (
{
closed = 1;
nodes = (
"355 -190 LINE",
"1130 1610 LINE",
"855 1610 LINE",
"80 -190 LINE"
);
}
);
width = 1200;
}
);
unicode = 002F;
}
{
glyphname = "alef-hb";
layers = (
{
anchors = (
{
name = bottom;
position = "{584, 0}";
},
{
name = center;
position = "{443, 331}";
}
);
guideLines = (
{
angle = 90;
position = "{982, 625}";
},
{
angle = 90;
position = "{998, 315}";
}
);
layerId = master01;
paths = (
{
closed = 1;
nodes = (
"1047 0 LINE",
"224 1200 LINE",
"108 1200 LINE",
"929 0 LINE"
);
},
{
closed = 1;
nodes = (
"394 0 LINE",
"394 99 LINE",
"147 99 LINE",
"147 0 LINE"
);
},
{
closed = 1;
nodes = (
"234 0 LINE",
"234 43 OFFCURVE",
"234 90 OFFCURVE",
"234 228 CURVE SMOOTH",
"234 550 OFFCURVE",
"276 803 OFFCURVE",
"439 817 CURVE",
"413 875 LINE",
"177 853 OFFCURVE",
"136 541 OFFCURVE",
"136 228 CURVE SMOOTH",
"136 88 OFFCURVE",
"136 41 OFFCURVE",
"136 0 CURVE"
);
},
{
closed = 1;
nodes = (
"784 513 OFFCURVE",
"978 588 OFFCURVE",
"997 907 CURVE SMOOTH",
"1002 991 OFFCURVE",
"1008 1094 OFFCURVE",
"1008 1200 CURVE",
"910 1200 LINE",
"910 1094 OFFCURVE",
"904 975 OFFCURVE",
"896 869 CURVE SMOOTH",
"882 687 OFFCURVE",
"779 582 OFFCURVE",
"625 582 CURVE",
"655 513 LINE"
);
},
{
closed = 1;
nodes = (
"998 1101 LINE",
"998 1200 LINE",
"731 1200 LINE",
"731 1101 LINE"
);
}
);
width = 1200;
},
{
anchors = (
{
name = bottom;
position = "{584, 0}";
},
{
name = center;
position = "{449, 374}";
}
);
layerId = "8E053A5E-67DA-4970-A6F5-068DBFE5AD21";
paths = (
{
closed = 1;
nodes = (
"1127 0 LINE",
"374 1200 LINE",
"48 1200 LINE",
"799 0 LINE"
);
},
{
closed = 1;
nodes = (
"504 0 LINE",
"504 271 LINE",
"207 271 LINE",
"207 0 LINE"
);
},
{
closed = 1;
nodes = (
"354 0 LINE",
"354 43 OFFCURVE",
"354 321 OFFCURVE",
"354 459 CURVE SMOOTH",
"354 700 OFFCURVE",
"396 743 OFFCURVE",
"479 757 CURVE",
"453 875 LINE",
"147 853 OFFCURVE",
"106 609 OFFCURVE",
"106 296 CURVE SMOOTH",
"106 156 OFFCURVE",
"106 41 OFFCURVE",
"106 0 CURVE"
);
},
{
closed = 1;
nodes = (
"833 463 OFFCURVE",
"1027 558 OFFCURVE",
"1046 877 CURVE SMOOTH",
"1051 961 OFFCURVE",
"1057 1094 OFFCURVE",
"1057 1200 CURVE",
"805 1200 LINE",
"805 1094 OFFCURVE",
"798 975 OFFCURVE",
"791 869 CURVE SMOOTH",
"779 687 OFFCURVE",
"745 618 OFFCURVE",
"584 618 CURVE",
"594 463 LINE"
);
},
{
closed = 1;
nodes = (
"978 929 LINE",
"1048 1200 LINE",
"661 1200 LINE",
"661 929 LINE"
);
}
);
width = 1200;
},
{
anchors = (
{
name = bottom;
position = "{584, 0}";
},
{
name = center;
position = "{447, 356}";
}
);
layerId = "1F90C004-9C90-48FA-B407-176B3E9F1E65";
paths = (
{
closed = 1;
nodes = (
"1094 0 LINE",
"313 1200 LINE",
"73 1200 LINE",
"852 0 LINE"
);
},
{
closed = 1;
nodes = (
"459 0 LINE",
"459 201 LINE",
"182 201 LINE",
"182 0 LINE"
);
},
{
closed = 1;
nodes = (
"305 0 LINE",
"305 43 OFFCURVE",
"305 226 OFFCURVE",
"305 364 CURVE SMOOTH",
"305 639 OFFCURVE",
"347 768 OFFCURVE",
"463 782 CURVE",
"437 875 LINE",
"159 853 OFFCURVE",
"118 581 OFFCURVE",
"118 268 CURVE SMOOTH",
"118 128 OFFCURVE",
"118 41 OFFCURVE",
"118 0 CURVE"
);
},
{
closed = 1;
nodes = (
"813 483 OFFCURVE",
"1007 570 OFFCURVE",
"1026 889 CURVE SMOOTH",
"1031 973 OFFCURVE",
"1037 1094 OFFCURVE",
"1037 1200 CURVE",
"848 1200 LINE",
"848 1094 OFFCURVE",
"841 975 OFFCURVE",
"834 869 CURVE SMOOTH",
"821 687 OFFCURVE",
"759 603 OFFCURVE",
"601 603 CURVE",
"619 483 LINE"
);
},
{
closed = 1;
nodes = (
"986 999 LINE",
"1028 1200 LINE",
"690 1200 LINE",
"690 999 LINE"
);
}
);
width = 1200;
}
);
unicode = 05D0;
}
{
glyphname = "ayin-hb";
layers = (
{
layerId = master01;
paths = (
{
closed = 1;
nodes = (
"174 0 OFFCURVE",
"251 0 OFFCURVE",
"328 0 CURVE",
"772 0 OFFCURVE",
"966 132 OFFCURVE",
"966 627 CURVE SMOOTH",
"966 1200 LINE",
"867 1200 LINE",
"867 629 LINE SMOOTH",
"867 169 OFFCURVE",
"686 99 OFFCURVE",
"322 99 CURVE",
"97 99 LINE",
"97 0 LINE"
);
},
{
closed = 1;
nodes = (
"499 77 LINE",
"318 1200 LINE",
"215 1200 LINE",
"396 77 LINE"
);
}
);
width = 1200;
},
{
layerId = "8E053A5E-67DA-4970-A6F5-068DBFE5AD21";
paths = (
{
closed = 1;
nodes = (
"234 0 OFFCURVE",
"350 0 OFFCURVE",
"467 0 CURVE",
"911 0 OFFCURVE",
"1045 124 OFFCURVE",
"1045 551 CURVE SMOOTH",
"1045 1200 LINE",
"787 1200 LINE",
"787 610 LINE SMOOTH",
"787 296 OFFCURVE",
"704 270 OFFCURVE",
"533 270 CURVE",
"117 270 LINE",
"117 0 LINE"
);
},
{
closed = 1;
nodes = (
"641 77 LINE",
"478 1200 LINE",
"204 1200 LINE",
"385 77 LINE"
);
}
);
width = 1200;
},
{
layerId = "1F90C004-9C90-48FA-B407-176B3E9F1E65";
paths = (
{
closed = 1;
nodes = (
"209 0 OFFCURVE",
"309 0 OFFCURVE",
"410 0 CURVE",
"854 0 OFFCURVE",
"1013 127 OFFCURVE",
"1013 582 CURVE SMOOTH",
"1013 1200 LINE",
"820 1200 LINE",
"820 618 LINE SMOOTH",
"820 244 OFFCURVE",
"697 200 OFFCURVE",
"447 200 CURVE",
"109 200 LINE",
"109 0 LINE"
);
},
{
closed = 1;
nodes = (
"583 77 LINE",
"412 1200 LINE",
"209 1200 LINE",
"390 77 LINE"
);
}
);
width = 1200;
}
);
unicode = 05E2;
}
{
glyphname = "bet-hb";
layers = (
{
anchors = (
{
name = center;
position = "{417, 590}";
}
);
layerId = master01;
paths = (
{
closed = 1;
nodes = (
"861 99 LINE",
"125 99 LINE",
"125 0 LINE",
"1038 0 LINE",
"1038 82 LINE"
);
},
{
closed = 1;
nodes = (
"862 1065 OFFCURVE",
"719 1200 OFFCURVE",
"481 1200 CURVE SMOOTH",
"290 1200 LINE SMOOTH",
"240 1200 OFFCURVE",
"198 1230 OFFCURVE",
"168 1253 CURVE",
"114 1174 LINE",
"149 1143 OFFCURVE",
"192 1101 OFFCURVE",
"269 1101 CURVE SMOOTH",
"481 1101 LINE SMOOTH",
"658 1101 OFFCURVE",
"763 997 OFFCURVE",
"763 809 CURVE SMOOTH",
"763 0 LINE",
"862 0 LINE",
"862 829 LINE SMOOTH"
);
}
);
width = 1200;
},
{
anchors = (
{
name = center;
position = "{392, 607}";
}
);
guideLines = (
{
angle = 90;
position = "{120, 548}";
}
);
layerId = "8E053A5E-67DA-4970-A6F5-068DBFE5AD21";
paths = (
{
closed = 1;
nodes = (
"963 270 LINE",
"121 270 LINE",
"121 0 LINE",
"1140 0 LINE",
"1140 214 LINE"
);
},
{
closed = 1;
nodes = (
"964 1067 OFFCURVE",
"820 1200 OFFCURVE",
"533 1200 CURVE SMOOTH",
"393 1200 LINE SMOOTH",
"320 1200 OFFCURVE",
"238 1234 OFFCURVE",
"208 1253 CURVE",
"118 1018 LINE",
"184 970 OFFCURVE",
"281 930 OFFCURVE",
"394 930 CURVE SMOOTH",
"479 930 LINE SMOOTH",
"664 930 OFFCURVE",
"706 873 OFFCURVE",
"706 638 CURVE SMOOTH",
"706 0 LINE",
"964 0 LINE",
"964 809 LINE SMOOTH"
);
}
);
width = 1200;
},
{
anchors = (
{
name = center;
position = "{402, 600}";
}
);
layerId = "1F90C004-9C90-48FA-B407-176B3E9F1E65";
paths = (
{
closed = 1;
nodes = (
"921 200 LINE",
"123 200 LINE",
"123 0 LINE",
"1098 0 LINE",
"1098 160 LINE"
);
},
{
closed = 1;
nodes = (
"922 1066 OFFCURVE",
"779 1200 OFFCURVE",
"512 1200 CURVE SMOOTH",
"351 1200 LINE SMOOTH",
"287 1200 OFFCURVE",
"222 1232 OFFCURVE",
"192 1253 CURVE",
"116 1082 LINE",
"170 1041 OFFCURVE",
"245 1000 OFFCURVE",
"343 1000 CURVE SMOOTH",
"480 1000 LINE SMOOTH",
"662 1000 OFFCURVE",
"729 924 OFFCURVE",
"729 708 CURVE SMOOTH",
"729 0 LINE",
"922 0 LINE",
"922 817 LINE SMOOTH"
);
}
);
width = 1200;
}
);
unicode = 05D1;
}
{
glyphname = "dagesh-hb";
layers = (
{
anchors = (
{
name = _center;
position = "{600, 544}";
}
);
layerId = master01;
paths = (
{
closed = 1;
nodes = (
"650 454 OFFCURVE",
"691 494 OFFCURVE",
"691 544 CURVE SMOOTH",
"691 594 OFFCURVE",
"650 635 OFFCURVE",
"600 635 CURVE SMOOTH",
"550 635 OFFCURVE",
"509 594 OFFCURVE",
"509 544 CURVE SMOOTH",
"509 494 OFFCURVE",
"550 454 OFFCURVE",
"600 454 CURVE SMOOTH"
);
}
);
width = 1200;
},
{
anchors = (
{
name = _center;
position = "{600, 544}";
}
);
layerId = "8E053A5E-67DA-4970-A6F5-068DBFE5AD21";
paths = (
{
closed = 1;
nodes = (
"650 454 OFFCURVE",
"691 494 OFFCURVE",
"691 544 CURVE SMOOTH",
"691 594 OFFCURVE",
"650 635 OFFCURVE",
"600 635 CURVE SMOOTH",
"550 635 OFFCURVE",
"509 594 OFFCURVE",
"509 544 CURVE SMOOTH",
"509 494 OFFCURVE",
"550 454 OFFCURVE",
"600 454 CURVE SMOOTH"
);
}
);
width = 1200;
},
{
anchors = (
{
name = _center;
position = "{600, 544}";
}
);
layerId = "1F90C004-9C90-48FA-B407-176B3E9F1E65";
paths = (
{
closed = 1;
nodes = (
"650 454 OFFCURVE",
"691 494 OFFCURVE",
"691 544 CURVE SMOOTH",
"691 594 OFFCURVE",
"650 635 OFFCURVE",
"600 635 CURVE SMOOTH",
"550 635 OFFCURVE",
"509 594 OFFCURVE",
"509 544 CURVE SMOOTH",
"509 494 OFFCURVE",
"550 454 OFFCURVE",
"600 454 CURVE SMOOTH"
);
}
);
width = 1200;
}
);
unicode = 05BC;
}
{
glyphname = "dalet-hb";
layers = (
{
anchors = (
{
name = center;
position = "{461, 590}";
}
);
layerId = master01;
paths = (
{
closed = 1;
nodes = (
"852 0 LINE",
"852 1200 LINE",
"753 1200 LINE",
"753 0 LINE"
);
},
{
closed = 1;
nodes = (
"846 1101 LINE",
"1033 1118 LINE",
"1033 1200 LINE",
"98 1200 LINE",
"98 1101 LINE"
);
}
);
width = 1200;
},
{
anchors = (
{
name = center;
position = "{392, 607}";
}
);
layerId = "8E053A5E-67DA-4970-A6F5-068DBFE5AD21";
paths = (
{
closed = 1;
nodes = (
"892 0 LINE",
"892 1200 LINE",
"634 1200 LINE",
"634 0 LINE"
);
},
{
closed = 1;
nodes = (
"886 930 LINE",
"1073 987 LINE",
"1073 1200 LINE",
"58 1200 LINE",
"58 930 LINE"
);
}
);
width = 1200;
},
{
anchors = (
{
name = center;
position = "{420, 600}";
}
);
layerId = "1F90C004-9C90-48FA-B407-176B3E9F1E65";
paths = (
{
closed = 1;
nodes = (
"876 0 LINE",
"876 1200 LINE",
"683 1200 LINE",
"683 0 LINE"
);
},
{
closed = 1;
nodes = (
"870 1000 LINE",
"1057 1041 LINE",
"1057 1200 LINE",
"74 1200 LINE",
"74 1000 LINE"
);
}
);
width = 1200;
}
);
unicode = 05D3;
}
{
glyphname = "finalkaf-hb";
layers = (
{
anchors = (
{
name = center;
position = "{401, 449}";
}
);
layerId = master01;
paths = (
{
closed = 1;
nodes = (
"947 1054 OFFCURVE",
"812 1200 OFFCURVE",
"485 1200 CURVE SMOOTH",
"262 1200 LINE SMOOTH",
"212 1200 OFFCURVE",
"170 1230 OFFCURVE",
"140 1253 CURVE",
"86 1174 LINE",
"123 1143 OFFCURVE",
"164 1101 OFFCURVE",
"241 1101 CURVE SMOOTH",
"466 1101 LINE SMOOTH",
"743 1101 OFFCURVE",
"848 997 OFFCURVE",
"848 709 CURVE SMOOTH",
"848 -460 LINE",
"947 -460 LINE",
"947 718 LINE SMOOTH"
);
}
);
width = 1200;
},
{
anchors = (
{
name = center;
position = "{362, 507}";
}
);
layerId = "8E053A5E-67DA-4970-A6F5-068DBFE5AD21";
paths = (
{
closed = 1;
nodes = (
"969 1078 OFFCURVE",
"856 1200 OFFCURVE",
"464 1200 CURVE SMOOTH",
"293 1200 LINE SMOOTH",
"220 1200 OFFCURVE",
"138 1234 OFFCURVE",
"108 1253 CURVE",
"18 1018 LINE",
"84 970 OFFCURVE",
"181 930 OFFCURVE",
"294 930 CURVE SMOOTH",
"417 930 LINE SMOOTH",
"666 930 OFFCURVE",
"711 874 OFFCURVE",
"711 584 CURVE SMOOTH",
"711 -460 LINE",
"969 -460 LINE",
"969 706 LINE SMOOTH"
);
}
);
width = 1200;
},
{
anchors = (
{
name = center;
position = "{378, 483}";
}
);
layerId = "1F90C004-9C90-48FA-B407-176B3E9F1E65";
paths = (
{
closed = 1;
nodes = (
"960 1068 OFFCURVE",
"838 1200 OFFCURVE",
"473 1200 CURVE SMOOTH",
"280 1200 LINE SMOOTH",
"217 1200 OFFCURVE",
"151 1232 OFFCURVE",
"121 1253 CURVE",
"46 1082 LINE",
"100 1041 OFFCURVE",
"174 1000 OFFCURVE",
"272 1000 CURVE SMOOTH",
"437 1000 LINE SMOOTH",
"698 1000 OFFCURVE",
"767 924 OFFCURVE",
"767 635 CURVE SMOOTH",
"767 -460 LINE",
"960 -460 LINE",
"960 711 LINE SMOOTH"
);
}
);
width = 1200;
}
);
unicode = 05DA;
}
{
glyphname = "finalmem-hb";
layers = (
{
layerId = master01;
paths = (
{
closed = 1;
nodes = (
"974 0 LINE",
"974 957 LINE SMOOTH",
"974 1119 OFFCURVE",
"901 1200 OFFCURVE",
"739 1200 CURVE SMOOTH",
"290 1200 LINE SMOOTH",
"240 1200 OFFCURVE",
"198 1230 OFFCURVE",
"168 1253 CURVE",
"114 1174 LINE",
"151 1143 OFFCURVE",
"192 1101 OFFCURVE",
"269 1101 CURVE SMOOTH",
"726 1101 LINE SMOOTH",
"826 1101 OFFCURVE",
"875 1045 OFFCURVE",
"875 925 CURVE SMOOTH",
"875 0 LINE"
);
},
{
closed = 1;
nodes = (
"974 0 LINE",
"974 99 LINE",
"151 99 LINE",
"151 0 LINE"
);
},
{
closed = 1;
nodes = (
"250 0 LINE",
"250 820 LINE SMOOTH",
"250 929 OFFCURVE",
"254 1101 OFFCURVE",
"412 1101 CURVE",
"233 1166 LINE",
"233 1094 LINE",
"185 1065 OFFCURVE",
"151 978 OFFCURVE",
"151 839 CURVE SMOOTH",
"151 0 LINE"
);
}
);
width = 1200;
},
{
layerId = "8E053A5E-67DA-4970-A6F5-068DBFE5AD21";
paths = (
{
closed = 1;
nodes = (
"1018 0 LINE",
"1018 877 LINE SMOOTH",
"1018 1080 OFFCURVE",
"905 1200 OFFCURVE",
"723 1200 CURVE SMOOTH",
"353 1200 LINE SMOOTH",
"280 1200 OFFCURVE",
"198 1234 OFFCURVE",
"168 1253 CURVE",
"78 1018 LINE",
"130 980 OFFCURVE",
"231 930 OFFCURVE",
"288 930 CURVE SMOOTH",
"611 930 LINE SMOOTH",
"711 930 OFFCURVE",
"760 874 OFFCURVE",
"760 754 CURVE SMOOTH",
"760 0 LINE"
);
},
{
closed = 1;
nodes = (
"934 0 LINE",
"934 270 LINE",
"240 270 LINE",
"240 0 LINE"
);
},
{
closed = 1;
nodes = (
"374 0 LINE",
"374 646 LINE SMOOTH",
"374 755 OFFCURVE",
"378 930 OFFCURVE",
"536 930 CURVE",
"268 994 LINE",
"268 922 LINE",
"182 893 OFFCURVE",
"121 804 OFFCURVE",
"116 665 CURVE",
"116 0 LINE"
);
}
);
width = 1200;
},
{
layerId = "1F90C004-9C90-48FA-B407-176B3E9F1E65";
paths = (
{
closed = 1;
nodes = (
"1000 0 LINE",
"1000 910 LINE SMOOTH",
"1000 1096 OFFCURVE",
"903 1200 OFFCURVE",
"730 1200 CURVE SMOOTH",
"327 1200 LINE SMOOTH",
"264 1200 OFFCURVE",
"198 1232 OFFCURVE",
"168 1253 CURVE",
"93 1082 LINE",
"139 1047 OFFCURVE",
"215 1000 OFFCURVE",
"280 1000 CURVE SMOOTH",
"658 1000 LINE SMOOTH",
"758 1000 OFFCURVE",
"807 944 OFFCURVE",
"807 824 CURVE SMOOTH",
"807 0 LINE"
);
},
{
closed = 1;
nodes = (
"950 0 LINE",
"950 200 LINE",
"204 200 LINE",
"204 0 LINE"
);
},
{
closed = 1;
nodes = (
"323 0 LINE",
"323 717 LINE SMOOTH",
"323 826 OFFCURVE",
"327 1000 OFFCURVE",
"485 1000 CURVE",
"254 1064 LINE",
"254 992 LINE",
"183 963 OFFCURVE",
"130 875 OFFCURVE",
"130 736 CURVE SMOOTH",
"130 0 LINE"
);
}
);
width = 1200;
}
);
unicode = 05DD;
}
{
glyphname = "finalnun-hb";
layers = (
{
layerId = master01;
paths = (
{
closed = 1;
nodes = (
"788 1200 LINE",
"689 1200 LINE",
"689 -460 LINE",
"788 -460 LINE"
);
},
{
closed = 1;
nodes = (
"221 1200 LINE",
"221 1101 LINE",
"787 1101 LINE",
"787 1200 LINE"
);
}
);
width = 1200;
},
{
layerId = "8E053A5E-67DA-4970-A6F5-068DBFE5AD21";
paths = (
{
closed = 1;
nodes = (
"845 1200 LINE",
"582 1200 LINE",
"582 -460 LINE",
"845 -460 LINE"
);
},
{
closed = 1;
nodes = (
"184 1200 LINE",
"184 930 LINE",
"844 930 LINE",
"844 1200 LINE"
);
}
);
width = 1200;
},
{
layerId = "1F90C004-9C90-48FA-B407-176B3E9F1E65";
paths = (
{
closed = 1;
nodes = (
"822 1200 LINE",
"626 1200 LINE",
"626 -460 LINE",
"822 -460 LINE"
);
},
{
closed = 1;
nodes = (
"199 1200 LINE",
"199 1000 LINE",
"821 1000 LINE",
"821 1200 LINE"
);
}
);
width = 1200;
}
);
unicode = 05DF;
}
{
glyphname = "finalpe-hb";
layers = (
{
anchors = (
{
name = center;
position = "{597, 838}";
}
);
layerId = master01;
paths = (
{
closed = 1;
nodes = (
"970 -460 LINE",
"970 810 LINE SMOOTH",
"970 1058 OFFCURVE",
"833 1200 OFFCURVE",
"589 1200 CURVE SMOOTH",
"241 1200 LINE",
"196 1016 OFFCURVE",
"166 818 OFFCURVE",
"138 537 CURVE",
"238 537 LINE",
"268 801 OFFCURVE",
"295 1003 OFFCURVE",
"316 1101 CURVE",
"589 1101 LINE SMOOTH",
"766 1101 OFFCURVE",
"871 997 OFFCURVE",
"871 809 CURVE SMOOTH",
"871 -460 LINE"
);
},
{
closed = 1;
nodes = (
"554 573 LINE",
"154 634 LINE",
"138 537 LINE",
"534 476 LINE"
);
}
);
width = 1200;
},
{
anchors = (
{
name = center;
position = "{548, 785}";
}
);
layerId = "8E053A5E-67DA-4970-A6F5-068DBFE5AD21";
paths = (
{
closed = 1;
nodes = (
"1014 -460 LINE",
"1014 809 LINE SMOOTH",
"1014 1067 OFFCURVE",
"870 1200 OFFCURVE",
"583 1200 CURVE SMOOTH",
"193 1200 LINE",
"157 1066 OFFCURVE",
"109 684 OFFCURVE",
"99 438 CURVE",
"355 436 LINE",
"365 603 OFFCURVE",
"376 775 OFFCURVE",
"396 930 CURVE",
"514 930 LINE SMOOTH",
"697 930 OFFCURVE",
"756 873 OFFCURVE",
"756 638 CURVE SMOOTH",
"756 -460 LINE"
);
},
{
closed = 1;
nodes = (
"566 643 LINE",
"155 700 LINE",
"99 438 LINE",
"530 379 LINE"
);
}
);
width = 1200;
},
{
anchors = (
{
name = center;
position = "{568, 807}";
}
);
layerId = "1F90C004-9C90-48FA-B407-176B3E9F1E65";
paths = (
{
closed = 1;
nodes = (
"996 -460 LINE",
"996 809 LINE SMOOTH",
"996 1063 OFFCURVE",
"855 1200 OFFCURVE",
"585 1200 CURVE SMOOTH",
"213 1200 LINE",
"173 1046 OFFCURVE",
"132 739 OFFCURVE",
"115 479 CURVE",
"307 477 LINE",
"325 684 OFFCURVE",
"343 868 OFFCURVE",
"363 1000 CURVE",
"545 1000 LINE SMOOTH",
"725 1000 OFFCURVE",
"803 924 OFFCURVE",
"803 708 CURVE SMOOTH",
"803 -460 LINE"
);
},
{
closed = 1;
nodes = (
"561 614 LINE",
"155 673 LINE",
"115 479 LINE",
"532 419 LINE"
);
}
);
width = 1200;
}
);
unicode = 05E3;
}
{
glyphname = "finaltsadi-hb";
layers = (
{
layerId = master01;
paths = (
{
closed = 1;
nodes = (
"642 -460 LINE",
"642 464 LINE",
"652 446 LINE",
"217 1200 LINE",
"101 1200 LINE",
"543 432 LINE",
"543 -460 LINE"
);
},
{
closed = 1;
nodes = (
"736 423 OFFCURVE",
"930 498 OFFCURVE",
"949 817 CURVE SMOOTH",
"954 901 OFFCURVE",
"960 1094 OFFCURVE",
"960 1200 CURVE",
"858 1200 LINE",
"858 1094 OFFCURVE",
"851 888 OFFCURVE",
"844 782 CURVE SMOOTH",
"832 600 OFFCURVE",
"731 495 OFFCURVE",
"577 495 CURVE",
"607 423 LINE"
);
},
{
closed = 1;
nodes = (
"951 1101 LINE",
"951 1200 LINE",
"684 1200 LINE",
"684 1101 LINE"
);
}
);
width = 1200;
},
{
layerId = "8E053A5E-67DA-4970-A6F5-068DBFE5AD21";
paths = (
{
closed = 1;
nodes = (
"745 -460 LINE",
"745 565 LINE",
"781 402 LINE",
"414 1200 LINE",
"83 1200 LINE",
"477 381 LINE",
"477 -460 LINE"
);
},
{
closed = 1;
nodes = (
"813 376 OFFCURVE",
"1007 418 OFFCURVE",
"1026 737 CURVE SMOOTH",
"1031 821 OFFCURVE",
"1037 1094 OFFCURVE",
"1037 1200 CURVE",
"792 1200 LINE",
"792 1094 OFFCURVE",
"792 905 OFFCURVE",
"785 799 CURVE SMOOTH",
"773 617 OFFCURVE",
"741 548 OFFCURVE",
"605 548 CURVE",
"574 376 LINE"
);
},
{
closed = 1;
nodes = (
"958 929 LINE",
"1028 1200 LINE",
"691 1200 LINE",
"691 929 LINE"
);
}
);
width = 1200;
},
{
layerId = "1F90C004-9C90-48FA-B407-176B3E9F1E65";
paths = (
{
closed = 1;
nodes = (
"703 -460 LINE",
"703 524 LINE",
"728 420 LINE",
"333 1200 LINE",
"90 1200 LINE",
"504 402 LINE",
"504 -460 LINE"
);
},
{
closed = 1;
nodes = (
"781 395 OFFCURVE",
"975 451 OFFCURVE",
"994 770 CURVE SMOOTH",
"999 854 OFFCURVE",
"1005 1094 OFFCURVE",
"1005 1200 CURVE",
"819 1200 LINE",
"819 1094 OFFCURVE",
"816 898 OFFCURVE",
"809 792 CURVE SMOOTH",
"797 610 OFFCURVE",
"737 526 OFFCURVE",
"594 526 CURVE",
"588 395 LINE"
);
},
{
closed = 1;
nodes = (
"955 999 LINE",
"996 1200 LINE",
"688 1200 LINE",
"688 999 LINE"
);
}
);
width = 1200;
}
);
unicode = 05E5;
}
{
glyphname = "geresh-hb";
layers = (
{
layerId = master01;
paths = (
{
closed = 1;
nodes = (
"484 730 LINE",
"844 1420 LINE",
"682 1420 LINE",
"412 730 LINE"
);
}
);
width = 1200;
},
{
layerId = "1F90C004-9C90-48FA-B407-176B3E9F1E65";
paths = (
{
closed = 1;
nodes = (
"533 730 LINE",
"888 1420 LINE",
"595 1420 LINE",
"384 730 LINE"
);
}
);
width = 1200;
},
{
layerId = "8E053A5E-67DA-4970-A6F5-068DBFE5AD21";
paths = (
{
closed = 1;
nodes = (
"567 730 LINE",
"919 1420 LINE",
"534 1420 LINE",
"365 730 LINE"
);
}
);
width = 1200;
}
);
unicode = 05F3;
}
{
glyphname = "gimel-hb";
layers = (
{
anchors = (
{
name = center;
position = "{415, 590}";
}
);
layerId = master01;
paths = (
{
closed = 1;
nodes = (
"622 -18 OFFCURVE",
"784 277 OFFCURVE",
"805 612 CURVE SMOOTH",
"817 803 LINE",
"723 803 LINE",
"723 638 LINE SMOOTH",
"723 320 OFFCURVE",
"541 82 OFFCURVE",
"334 82 CURVE SMOOTH",
"288 82 OFFCURVE",
"231 90 OFFCURVE",
"177 107 CURVE",
"166 12 LINE",
"220 -11 OFFCURVE",
"270 -18 OFFCURVE",
"318 -18 CURVE SMOOTH"
);
},
{
closed = 1;
nodes = (
"890 0 LINE",
"822 443 LINE",
"822 1200 LINE",
"723 1200 LINE",
"723 522 LINE",
"791 0 LINE"
);
},
{
closed = 1;
nodes = (
"822 1101 LINE",
"822 1200 LINE",
"315 1200 LINE",
"315 1101 LINE"
);
}
);
width = 1200;
},
{
anchors = (
{
name = center;
position = "{392, 607}";
}
);
layerId = "8E053A5E-67DA-4970-A6F5-068DBFE5AD21";
paths = (
{
closed = 1;
nodes = (
"675 -18 OFFCURVE",
"871 358 OFFCURVE",
"871 722 CURVE SMOOTH",
"871 803 LINE",
"617 803 LINE",
"617 748 LINE SMOOTH",
"617 462 OFFCURVE",
"570 250 OFFCURVE",
"344 250 CURVE SMOOTH",
"278 250 OFFCURVE",
"234 261 OFFCURVE",
"197 275 CURVE",
"156 12 LINE",
"210 -11 OFFCURVE",
"260 -18 OFFCURVE",
"319 -18 CURVE SMOOTH"
);
},
{
closed = 1;
nodes = (
"943 0 LINE",
"875 483 LINE",
"875 1200 LINE",
"617 1200 LINE",
"617 666 LINE",
"700 0 LINE"
);
},
{
closed = 1;
nodes = (
"834 930 LINE",
"834 1200 LINE",
"284 1200 LINE",
"284 930 LINE"
);
}
);
width = 1200;
},
{
anchors = (
{
name = center;
position = "{401, 600}";
}
);
layerId = "1F90C004-9C90-48FA-B407-176B3E9F1E65";
paths = (
{
closed = 1;
nodes = (
"653 -18 OFFCURVE",
"835 325 OFFCURVE",
"844 677 CURVE SMOOTH",
"849 803 LINE",
"660 803 LINE",
"660 703 LINE SMOOTH",
"660 404 OFFCURVE",
"558 181 OFFCURVE",
"340 181 CURVE SMOOTH",
"282 181 OFFCURVE",
"233 191 OFFCURVE",
"189 206 CURVE",
"160 12 LINE",
"214 -11 OFFCURVE",
"264 -18 OFFCURVE",
"319 -18 CURVE SMOOTH"
);
},
{
closed = 1;
nodes = (
"921 0 LINE",
"853 467 LINE",
"853 1200 LINE",
"660 1200 LINE",
"660 607 LINE",
"737 0 LINE"
);
},
{
closed = 1;
nodes = (
"829 1000 LINE",
"829 1200 LINE",
"297 1200 LINE",
"297 1000 LINE"
);
}
);
width = 1200;
}
);
unicode = 05D2;
}
{
glyphname = "he-hb";
layers = (
{
anchors = (
{
name = center;
position = "{564, 590}";
}
);
guideLines = (
{
angle = 90;
position = "{1114, 175}";
},
{
angle = 90;
position = "{2, 199}";
}
);
layerId = master01;
paths = (
{
closed = 1;
nodes = (
"977 0 LINE",
"977 957 LINE SMOOTH",
"977 1119 OFFCURVE",
"904 1200 OFFCURVE",
"742 1200 CURVE SMOOTH",
"290 1200 LINE SMOOTH",
"240 1200 OFFCURVE",
"198 1230 OFFCURVE",
"168 1253 CURVE",
"114 1174 LINE",
"151 1143 OFFCURVE",
"192 1101 OFFCURVE",
"269 1101 CURVE SMOOTH",
"729 1101 LINE SMOOTH",
"829 1101 OFFCURVE",
"878 1045 OFFCURVE",
"878 925 CURVE SMOOTH",
"878 0 LINE"
);
},
{
closed = 1;
nodes = (
"250 0 LINE",
"250 722 LINE",
"151 722 LINE",
"151 0 LINE"
);
}
);
width = 1200;
},
{
anchors = (
{
name = center;
position = "{598, 607}";
}
);
layerId = "8E053A5E-67DA-4970-A6F5-068DBFE5AD21";
paths = (
{
closed = 1;
nodes = (
"1049 0 LINE",
"1049 877 LINE SMOOTH",
"1049 1080 OFFCURVE",
"936 1200 OFFCURVE",
"754 1200 CURVE SMOOTH",
"403 1200 LINE SMOOTH",
"330 1200 OFFCURVE",
"248 1234 OFFCURVE",
"218 1253 CURVE",
"128 1018 LINE",
"194 970 OFFCURVE",
"291 930 OFFCURVE",
"404 930 CURVE SMOOTH",
"642 930 LINE SMOOTH",
"742 930 OFFCURVE",
"791 874 OFFCURVE",
"791 754 CURVE SMOOTH",
"791 0 LINE"
);
},
{
closed = 1;
nodes = (
"404 0 LINE",
"404 683 LINE",
"146 683 LINE",
"146 0 LINE"
);
}
);
width = 1200;
},
{
anchors = (
{
name = center;
position = "{584, 600}";
}
);
layerId = "1F90C004-9C90-48FA-B407-176B3E9F1E65";
paths = (
{
closed = 1;
nodes = (
"1019 0 LINE",
"1019 910 LINE SMOOTH",
"1019 1096 OFFCURVE",
"923 1200 OFFCURVE",
"749 1200 CURVE SMOOTH",
"357 1200 LINE SMOOTH",
"293 1200 OFFCURVE",
"228 1232 OFFCURVE",
"198 1253 CURVE",
"122 1082 LINE",
"176 1041 OFFCURVE",
"250 1000 OFFCURVE",
"349 1000 CURVE SMOOTH",
"678 1000 LINE SMOOTH",
"778 1000 OFFCURVE",
"827 944 OFFCURVE",
"827 824 CURVE SMOOTH",
"827 0 LINE"
);
},
{
closed = 1;
nodes = (
"341 0 LINE",
"341 699 LINE",
"148 699 LINE",
"148 0 LINE"
);
}
);
width = 1200;
}
);
unicode = 05D4;
}
{
glyphname = "het-hb";
layers = (
{
guideLines = (
{
position = "{515, 1200}";
}
);
layerId = master01;
paths = (
{
closed = 1;
nodes = (
"974 1119 OFFCURVE",
"901 1200 OFFCURVE",
"739 1200 CURVE SMOOTH",
"290 1200 LINE SMOOTH",
"240 1200 OFFCURVE",
"198 1230 OFFCURVE",
"168 1253 CURVE",
"114 1174 LINE",
"151 1143 OFFCURVE",
"192 1101 OFFCURVE",
"269 1101 CURVE SMOOTH",
"726 1101 LINE SMOOTH",
"826 1101 OFFCURVE",
"875 1045 OFFCURVE",
"875 925 CURVE SMOOTH",
"875 0 LINE",
"974 0 LINE",
"974 957 LINE SMOOTH"
);
},
{
closed = 1;
nodes = (
"185 1065 OFFCURVE",
"151 978 OFFCURVE",
"151 839 CURVE SMOOTH",
"151 0 LINE",
"250 0 LINE",
"250 820 LINE SMOOTH",
"250 929 OFFCURVE",
"254 1102 OFFCURVE",
"392 1102 CURVE",
"233 1171 LINE",
"233 1094 LINE"
);
}
);
width = 1200;
},
{
layerId = "8E053A5E-67DA-4970-A6F5-068DBFE5AD21";
paths = (
{
closed = 1;
nodes = (
"1048 1080 OFFCURVE",
"935 1200 OFFCURVE",
"753 1200 CURVE SMOOTH",
"383 1200 LINE SMOOTH",
"310 1200 OFFCURVE",
"228 1234 OFFCURVE",
"198 1253 CURVE",
"108 1018 LINE",
"152 981 OFFCURVE",
"246 929 OFFCURVE",
"316 929 CURVE",
"641 929 LINE SMOOTH",
"741 929 OFFCURVE",
"790 873 OFFCURVE",
"790 753 CURVE SMOOTH",
"790 0 LINE",
"1048 0 LINE",
"1048 877 LINE SMOOTH"
);
},
{
closed = 1;
nodes = (
"212 893 OFFCURVE",
"151 804 OFFCURVE",
"146 665 CURVE",
"146 0 LINE",
"404 0 LINE",
"404 646 LINE SMOOTH",
"404 755 OFFCURVE",
"408 929 OFFCURVE",
"566 929 CURVE",
"298 994 LINE",
"298 922 LINE"
);
}
);
width = 1200;
},
{
layerId = "1F90C004-9C90-48FA-B407-176B3E9F1E65";
paths = (
{
closed = 1;
nodes = (
"1018 1096 OFFCURVE",
"921 1200 OFFCURVE",
"747 1200 CURVE SMOOTH",
"345 1200 LINE SMOOTH",
"281 1200 OFFCURVE",
"216 1232 OFFCURVE",
"186 1253 CURVE",
"110 1082 LINE",
"152 1047 OFFCURVE",
"224 999 OFFCURVE",
"297 999 CURVE SMOOTH",
"676 999 LINE SMOOTH",
"776 999 OFFCURVE",
"825 943 OFFCURVE",
"825 823 CURVE SMOOTH",
"825 0 LINE",
"1018 0 LINE",
"1018 910 LINE SMOOTH"
);
},
{
closed = 1;
nodes = (
"201 963 OFFCURVE",
"148 875 OFFCURVE",
"148 736 CURVE SMOOTH",
"148 0 LINE",
"341 0 LINE",
"341 717 LINE SMOOTH",
"341 826 OFFCURVE",
"345 1000 OFFCURVE",
"495 1000 CURVE",
"271 1067 LINE",
"271 992 LINE"
);
}
);
width = 1200;
}
);
unicode = 05D7;
}
{
glyphname = "kaf-hb";
layers = (
{
anchors = (
{
name = center;
position = "{440, 590}";
}
);
layerId = master01;
paths = (
{
closed = 1;
nodes = (
"902 0 LINE",
"902 829 LINE SMOOTH",
"902 1065 OFFCURVE",
"759 1200 OFFCURVE",
"521 1200 CURVE SMOOTH",
"290 1200 LINE SMOOTH",
"240 1200 OFFCURVE",
"198 1230 OFFCURVE",
"168 1253 CURVE",
"114 1174 LINE",
"149 1143 OFFCURVE",
"192 1101 OFFCURVE",
"269 1101 CURVE SMOOTH",
"521 1101 LINE SMOOTH",
"698 1101 OFFCURVE",
"803 997 OFFCURVE",
"803 809 CURVE SMOOTH",
"803 0 LINE"
);
},
{
closed = 1;
nodes = (
"889 0 LINE",
"889 97 LINE",
"135 97 LINE",
"135 0 LINE"
);
}
);
width = 1200;
},
{
anchors = (
{
name = center;
position = "{442, 607}";
}
);
guideLines = (
{
angle = 90;
position = "{148, 806}";
}
);
layerId = "8E053A5E-67DA-4970-A6F5-068DBFE5AD21";
paths = (
{
closed = 1;
nodes = (
"994 0 LINE",
"994 809 LINE SMOOTH",
"994 1067 OFFCURVE",
"850 1200 OFFCURVE",
"563 1200 CURVE SMOOTH",
"423 1200 LINE SMOOTH",
"350 1200 OFFCURVE",
"268 1234 OFFCURVE",
"238 1253 CURVE",
"148 1018 LINE",
"214 970 OFFCURVE",
"311 930 OFFCURVE",
"424 930 CURVE SMOOTH",
"509 930 LINE SMOOTH",
"692 930 OFFCURVE",
"736 874 OFFCURVE",
"736 639 CURVE SMOOTH",
"736 0 LINE"
);
},
{
closed = 1;
nodes = (
"994 0 LINE",
"994 270 LINE",
"150 270 LINE",
"150 0 LINE"
);
}
);
width = 1200;
},
{
anchors = (
{
name = center;
position = "{441, 600}";
}
);
layerId = "1F90C004-9C90-48FA-B407-176B3E9F1E65";
paths = (
{
closed = 1;
nodes = (
"956 0 LINE",
"956 817 LINE SMOOTH",
"956 1066 OFFCURVE",
"813 1200 OFFCURVE",
"546 1200 CURVE SMOOTH",
"368 1200 LINE SMOOTH",
"305 1200 OFFCURVE",
"239 1232 OFFCURVE",
"209 1253 CURVE",
"134 1082 LINE",
"187 1041 OFFCURVE",
"262 1000 OFFCURVE",
"360 1000 CURVE SMOOTH",
"514 1000 LINE SMOOTH",
"694 1000 OFFCURVE",
"763 924 OFFCURVE",
"763 709 CURVE SMOOTH",
"763 0 LINE"
);
},
{
closed = 1;
nodes = (
"951 0 LINE",
"951 199 LINE",
"144 199 LINE",
"144 0 LINE"
);
}
);
width = 1200;
}
);
unicode = 05DB;
}
{
glyphname = "lamed-hb";
layers = (
{
anchors = (
{
name = center;
position = "{419, 590}";
}
);
guideLines = (
{
angle = 90;
position = "{380, 575}";
}
);
layerId = master01;
paths = (
{
closed = 1;
nodes = (
"137 1200 LINE",
"137 1101 LINE",
"921 1101 LINE",
"921 1200 LINE"
);
},
{
closed = 1;
nodes = (
"236 1500 LINE",
"137 1500 LINE",
"137 1151 LINE",
"236 1151 LINE"
);
},
{
closed = 1;
nodes = (
"823 672 LINE SMOOTH",
"823 325 OFFCURVE",
"722 146 OFFCURVE",
"380 77 CURVE",
"403 -19 LINE",
"774 56 OFFCURVE",
"922 257 OFFCURVE",
"922 652 CURVE SMOOTH",
"922 1200 LINE",
"823 1200 LINE"
);
}
);
width = 1200;
},
{
anchors = (
{
name = center;
position = "{372, 607}";
}
);
layerId = "8E053A5E-67DA-4970-A6F5-068DBFE5AD21";
paths = (
{
closed = 1;
nodes = (
"120 1200 LINE",
"120 930 LINE",
"992 930 LINE",
"992 1200 LINE"
);
},
{
closed = 1;
nodes = (
"378 1500 LINE",
"120 1500 LINE",
"120 1106 LINE",
"378 1106 LINE"
);
},
{
closed = 1;
nodes = (
"734 752 LINE SMOOTH",
"734 437 OFFCURVE",
"704 320 OFFCURVE",
"391 249 CURVE",
"450 -19 LINE",
"844 56 OFFCURVE",
"992 257 OFFCURVE",
"992 652 CURVE SMOOTH",
"992 1200 LINE",
"734 1200 LINE"
);
}
);
width = 1200;
},
{
anchors = (
{
name = center;
position = "{391, 600}";
}
);
layerId = "1F90C004-9C90-48FA-B407-176B3E9F1E65";
paths = (
{
closed = 1;
nodes = (
"127 1200 LINE",
"127 1000 LINE",
"963 1000 LINE",
"963 1200 LINE"
);
},
{
closed = 1;
nodes = (
"320 1500 LINE",
"127 1500 LINE",
"127 1124 LINE",
"320 1124 LINE"
);
},
{
closed = 1;
nodes = (
"770 719 LINE SMOOTH",
"770 391 OFFCURVE",
"711 249 OFFCURVE",
"386 179 CURVE",
"431 -19 LINE",
"815 56 OFFCURVE",
"963 257 OFFCURVE",
"963 652 CURVE SMOOTH",
"963 1200 LINE",
"770 1200 LINE"
);
}
);
width = 1200;
}
);
unicode = 05DC;
}
{
glyphname = "maqaf-hb";
layers = (
{
layerId = master01;
paths = (
{
closed = 1;
nodes = (
"257 1200 LINE",
"257 1101 LINE",
"943 1101 LINE",
"943 1200 LINE"
);
}
);
width = 1200;
},
{
layerId = "1F90C004-9C90-48FA-B407-176B3E9F1E65";
paths = (
{
closed = 1;
nodes = (
"244 1200 LINE",
"244 999 LINE",
"956 999 LINE",
"956 1200 LINE"
);
}
);
width = 1200;
},
{
layerId = "8E053A5E-67DA-4970-A6F5-068DBFE5AD21";
paths = (
{
closed = 1;
nodes = (
"235 1200 LINE",
"235 929 LINE",
"965 929 LINE",
"965 1200 LINE"
);
}
);
width = 1200;
}
);
unicode = 05BE;
}
{
glyphname = "mem-hb";
layers = (
{
anchors = (
{
name = center;
position = "{594, 590}";
}
);
guideLines = (
{
angle = 90;
position = "{139, 927}";
}
);
layerId = master01;
paths = (
{
closed = 1;
nodes = (
"234 0 LINE",
"310 841 LINE SMOOTH",
"325 1006 OFFCURVE",
"452 1108 OFFCURVE",
"625 1108 CURVE SMOOTH",
"867 1108 OFFCURVE",
"917 918 OFFCURVE",
"917 670 CURVE SMOOTH",
"917 379 LINE SMOOTH",
"917 155 OFFCURVE",
"749 102 OFFCURVE",
"625 102 CURVE SMOOTH",
"508 102 LINE",
"508 0 LINE",
"646 0 LINE SMOOTH",
"815 0 OFFCURVE",
"1017 92 OFFCURVE",
"1017 360 CURVE SMOOTH",
"1017 721 LINE SMOOTH",
"1017 922 OFFCURVE",
"963 1206 OFFCURVE",
"627 1206 CURVE SMOOTH",
"425 1206 OFFCURVE",
"321 1085 OFFCURVE",
"280 987 CURVE",
"268 987 LINE",
"229 925 LINE",
"138 0 LINE"
);
},
{
closed = 1;
nodes = (
"273 981 LINE",
"165 1200 LINE",
"63 1200 LINE",
"241 811 LINE"
);
}
);
width = 1200;
},
{
anchors = (
{
name = center;
position = "{636, 607}";
}
);
guideLines = (
{
angle = 90;
position = "{124, 683}";
}
);
layerId = "8E053A5E-67DA-4970-A6F5-068DBFE5AD21";
paths = (
{
closed = 1;
nodes = (
"388 0 LINE",
"453 712 LINE SMOOTH",
"468 871 OFFCURVE",
"531 936 OFFCURVE",
"654 936 CURVE SMOOTH",
"768 936 OFFCURVE",
"817 840 OFFCURVE",
"817 642 CURVE SMOOTH",
"817 446 LINE SMOOTH",
"817 326 OFFCURVE",
"768 270 OFFCURVE",
"673 270 CURVE SMOOTH",
"523 270 LINE",
"523 0 LINE",
"781 0 LINE SMOOTH",
"965 0 OFFCURVE",
"1076 123 OFFCURVE",
"1076 329 CURVE SMOOTH",
"1076 667 LINE SMOOTH",
"1076 1064 OFFCURVE",
"934 1206 OFFCURVE",
"686 1206 CURVE SMOOTH",
"452 1206 OFFCURVE",
"370 1075 OFFCURVE",
"329 977 CURVE",
"317 977 LINE",
"208 925 LINE",
"107 0 LINE"
);
},
{
closed = 1;
nodes = (
"321 968 LINE",
"244 1200 LINE",
"2 1200 LINE",
"196 642 LINE"
);
}
);
width = 1200;
},
{
anchors = (
{
name = center;
position = "{619, 600}";
}
);
layerId = "1F90C004-9C90-48FA-B407-176B3E9F1E65";
paths = (
{
closed = 1;
nodes = (
"325 0 LINE",
"394 765 LINE SMOOTH",
"409 926 OFFCURVE",
"499 1006 OFFCURVE",
"642 1006 CURVE SMOOTH",
"809 1006 OFFCURVE",
"858 872 OFFCURVE",
"858 653 CURVE SMOOTH",
"858 419 LINE SMOOTH",
"858 256 OFFCURVE",
"760 201 OFFCURVE",
"653 201 CURVE SMOOTH",
"517 201 LINE",
"517 0 LINE",
"726 0 LINE SMOOTH",
"904 0 OFFCURVE",
"1052 110 OFFCURVE",
"1052 342 CURVE SMOOTH",
"1052 689 LINE SMOOTH",
"1052 1006 OFFCURVE",
"946 1206 OFFCURVE",
"662 1206 CURVE SMOOTH",
"441 1206 OFFCURVE",
"350 1079 OFFCURVE",
"309 981 CURVE",
"297 981 LINE",
"217 925 LINE",
"120 0 LINE"
);
},
{
closed = 1;
nodes = (
"301 973 LINE",
"212 1200 LINE",
"27 1200 LINE",
"214 711 LINE"
);
}
);
width = 1200;
}
);
unicode = 05DE;
}
{
glyphname = "nun-hb";
layers = (
{
anchors = (
{
name = center;
position = "{463, 590}";
}
);
layerId = master01;
paths = (
{
closed = 1;
nodes = (
"503 0 LINE SMOOTH",
"673 0 OFFCURVE",
"872 94 OFFCURVE",
"872 364 CURVE",
"872 1200 LINE",
"773 1200 LINE",
"773 376 LINE SMOOTH",
"773 152 OFFCURVE",
"605 99 OFFCURVE",
"481 99 CURVE SMOOTH",
"159 99 LINE",
"159 0 LINE"
);
},
{
closed = 1;
nodes = (
"872 1101 LINE",
"872 1200 LINE",
"365 1200 LINE",
"365 1101 LINE"
);
}
);
width = 1200;
},
{
anchors = (
{
name = center;
position = "{442, 607}";
}
);
layerId = "8E053A5E-67DA-4970-A6F5-068DBFE5AD21";
paths = (
{
closed = 1;
nodes = (
"640 0 LINE SMOOTH",
"824 0 OFFCURVE",
"935 123 OFFCURVE",
"935 330 CURVE SMOOTH",
"935 1200 LINE",
"677 1200 LINE",
"677 446 LINE SMOOTH",
"677 326 OFFCURVE",
"628 270 OFFCURVE",
"528 270 CURVE SMOOTH",
"142 270 LINE",
"142 0 LINE"
);
},
{
closed = 1;
nodes = (
"894 930 LINE",
"894 1200 LINE",
"347 1200 LINE",
"347 930 LINE"
);
}
);
width = 1200;
},
{
anchors = (
{
name = center;
position = "{451, 600}";
}
);
layerId = "1F90C004-9C90-48FA-B407-176B3E9F1E65";
paths = (
{
closed = 1;
nodes = (
"584 0 LINE SMOOTH",
"762 0 OFFCURVE",
"909 111 OFFCURVE",
"909 344 CURVE",
"909 1200 LINE",
"716 1200 LINE",
"716 417 LINE SMOOTH",
"716 255 OFFCURVE",
"619 200 OFFCURVE",
"509 200 CURVE SMOOTH",
"149 200 LINE",
"149 0 LINE"
);
},
{
closed = 1;
nodes = (
"885 1000 LINE",
"885 1200 LINE",
"354 1200 LINE",
"354 1000 LINE"
);
}
);
width = 1200;
}
);
unicode = 05E0;
}
{
glyphname = "paseq-hb";
layers = (
{
layerId = master01;
paths = (
{
closed = 1;
nodes = (
"649 1500 LINE",
"550 1500 LINE",
"550 0 LINE",
"649 0 LINE"
);
}
);
width = 1200;
},
{
layerId = "1F90C004-9C90-48FA-B407-176B3E9F1E65";
paths = (
{
closed = 1;
nodes = (
"698 1500 LINE",
"502 1500 LINE",
"502 0 LINE",
"698 0 LINE"
);
}
);
width = 1200;
},
{
layerId = "8E053A5E-67DA-4970-A6F5-068DBFE5AD21";
paths = (
{
closed = 1;
nodes = (
"732 1500 LINE",
"469 1500 LINE",
"469 0 LINE",
"732 0 LINE"
);
}
);
width = 1200;
}
);
unicode = 05C0;
}
{
glyphname = "patah-hb";
layers = (
{
anchors = (
{
name = _bottom;
position = "{599, 0}";
}
);
layerId = master01;
paths = (
{
closed = 1;
nodes = (
"428 -222 LINE",
"428 -321 LINE",
"772 -321 LINE",
"772 -222 LINE"
);
}
);
width = 1200;
},
{
anchors = (
{
name = _bottom;
position = "{599, 0}";
}
);
layerId = "8E053A5E-67DA-4970-A6F5-068DBFE5AD21";
paths = (
{
closed = 1;
nodes = (
"383 -142 LINE",
"383 -321 LINE",
"817 -321 LINE",
"817 -142 LINE"
);
}
);
width = 1200;
},
{
anchors = (
{
name = _bottom;
position = "{599, 0}";
}
);
layerId = "1F90C004-9C90-48FA-B407-176B3E9F1E65";
paths = (
{
closed = 1;
nodes = (
"401 -175 LINE",
"401 -321 LINE",
"799 -321 LINE",
"799 -175 LINE"
);
}
);
width = 1200;
}
);
unicode = 05B7;
}
{
glyphname = "pe-hb";
layers = (
{
anchors = (
{
name = center;
position = "{597, 838}";
}
);
guideLines = (
{
angle = 90;
position = "{134, 742}";
}
);
layerId = master01;
paths = (
{
closed = 1;
nodes = (
"139 99 LINE",
"139 0 LINE",
"974 0 LINE",
"974 99 LINE"
);
},
{
closed = 1;
nodes = (
"156 705 LINE",
"139 608 LINE",
"536 546 LINE",
"556 643 LINE"
);
},
{
closed = 1;
nodes = (
"974 1065 OFFCURVE",
"831 1200 OFFCURVE",
"593 1200 CURVE SMOOTH",
"243 1200 LINE",
"202 1032 OFFCURVE",
"176 896 OFFCURVE",
"139 608 CURVE",
"241 606 LINE",
"274 896 OFFCURVE",
"305 1043 OFFCURVE",
"319 1101 CURVE",
"593 1101 LINE SMOOTH",
"770 1101 OFFCURVE",
"875 997 OFFCURVE",
"875 809 CURVE SMOOTH",
"875 0 LINE",
"974 0 LINE",
"974 829 LINE SMOOTH"
);
}
);
width = 1200;
},
{
anchors = (
{
name = center;
position = "{659, 415}";
}
);
layerId = "8E053A5E-67DA-4970-A6F5-068DBFE5AD21";
paths = (
{
closed = 1;
nodes = (
"140 270 LINE",
"140 0 LINE",
"1034 0 LINE",
"1034 270 LINE"
);
},
{
closed = 1;
nodes = (
"185 800 LINE",
"129 538 LINE",
"560 479 LINE",
"596 743 LINE"
);
},
{
closed = 1;
nodes = (
"1034 1067 OFFCURVE",
"890 1200 OFFCURVE",
"603 1200 CURVE SMOOTH",
"223 1200 LINE",
"187 1066 OFFCURVE",
"139 784 OFFCURVE",
"129 538 CURVE",
"385 536 LINE",
"394 689 OFFCURVE",
"406 813 OFFCURVE",
"426 930 CURVE",
"534 930 LINE SMOOTH",
"717 930 OFFCURVE",
"776 873 OFFCURVE",
"776 638 CURVE SMOOTH",
"776 0 LINE",
"1034 0 LINE",
"1034 809 LINE SMOOTH"
);
}
);
width = 1200;
},
{
anchors = (
{
name = center;
position = "{634, 825}";
}
);
layerId = "1F90C004-9C90-48FA-B407-176B3E9F1E65";
paths = (
{
closed = 1;
nodes = (
"140 200 LINE",
"140 0 LINE",
"1009 0 LINE",
"1009 200 LINE"
);
},
{
closed = 1;
nodes = (
"173 761 LINE",
"133 567 LINE",
"550 506 LINE",
"580 702 LINE"
);
},
{
closed = 1;
nodes = (
"1009 1066 OFFCURVE",
"866 1200 OFFCURVE",
"599 1200 CURVE SMOOTH",
"231 1200 LINE",
"193 1052 OFFCURVE",
"154 830 OFFCURVE",
"133 567 CURVE",
"326 565 LINE",
"345 774 OFFCURVE",
"365 907 OFFCURVE",
"382 1000 CURVE",
"558 1000 LINE SMOOTH",
"739 1000 OFFCURVE",
"817 924 OFFCURVE",
"817 708 CURVE SMOOTH",
"817 0 LINE",
"1009 0 LINE",
"1009 817 LINE SMOOTH"
);
}
);
width = 1200;
}
);
unicode = 05E4;
}
{
glyphname = "qamats-hb";
layers = (
{
anchors = (
{
name = _bottom;
position = "{599, 0}";
}
);
layerId = master01;
paths = (
{
closed = 1;
nodes = (
"428 -222 LINE",
"428 -321 LINE",
"772 -321 LINE",
"772 -222 LINE"
);
},
{
closed = 1;
nodes = (
"652 -265 LINE",
"550 -265 LINE",
"550 -448 LINE",
"652 -448 LINE"
);
}
);
width = 1200;
},
{
anchors = (
{
name = _bottom;
position = "{599, 0}";
}
);
layerId = "8E053A5E-67DA-4970-A6F5-068DBFE5AD21";
paths = (
{
closed = 1;
nodes = (
"383 -142 LINE",
"383 -321 LINE",
"817 -321 LINE",
"817 -142 LINE"
);
},
{
closed = 1;
nodes = (
"682 -195 LINE",
"520 -195 LINE",
"520 -478 LINE",
"682 -478 LINE"
);
}
);
width = 1200;
},
{
anchors = (
{
name = _bottom;
position = "{599, 0}";
}
);
layerId = "1F90C004-9C90-48FA-B407-176B3E9F1E65";
paths = (
{
closed = 1;
nodes = (
"401 -175 LINE",
"401 -321 LINE",
"799 -321 LINE",
"799 -175 LINE"
);
},
{
closed = 1;
nodes = (
"670 -224 LINE",
"532 -224 LINE",
"532 -466 LINE",
"670 -466 LINE"
);
}
);
width = 1200;
}
);
unicode = 05B8;
}
{
glyphname = "qof-hb";
layers = (
{
anchors = (
{
name = center;
position = "{553, 778}";
}
);
layerId = master01;
paths = (
{
closed = 1;
nodes = (
"140 1200 LINE",
"140 1101 LINE",
"954 1101 LINE",
"954 1200 LINE"
);
},
{
closed = 1;
nodes = (
"250 722 LINE",
"151 722 LINE",
"151 -460 LINE",
"250 -460 LINE"
);
},
{
closed = 1;
nodes = (
"856 672 LINE SMOOTH",
"856 325 OFFCURVE",
"782 146 OFFCURVE",
"440 77 CURVE",
"463 -19 LINE",
"834 56 OFFCURVE",
"955 257 OFFCURVE",
"955 652 CURVE SMOOTH",
"955 1200 LINE",
"856 1200 LINE"
);
}
);
width = 1200;
},
{
anchors = (
{
name = center;
position = "{599, 607}";
}
);
layerId = "8E053A5E-67DA-4970-A6F5-068DBFE5AD21";
paths = (
{
closed = 1;
nodes = (
"160 1200 LINE",
"160 930 LINE",
"1052 930 LINE",
"1052 1200 LINE"
);
},
{
closed = 1;
nodes = (
"418 683 LINE",
"160 683 LINE",
"160 -460 LINE",
"418 -460 LINE"
);
},
{
closed = 1;
nodes = (
"794 752 LINE SMOOTH",
"794 437 OFFCURVE",
"794 301 OFFCURVE",
"531 249 CURVE",
"590 -19 LINE",
"984 56 OFFCURVE",
"1052 257 OFFCURVE",
"1052 652 CURVE SMOOTH",
"1052 1200 LINE",
"794 1200 LINE"
);
}
);
width = 1200;
},
{
anchors = (
{
name = center;
position = "{580, 677}";
}
);
layerId = "1F90C004-9C90-48FA-B407-176B3E9F1E65";
paths = (
{
closed = 1;
nodes = (
"152 1200 LINE",
"152 1000 LINE",
"1012 1000 LINE",
"1012 1200 LINE"
);
},
{
closed = 1;
nodes = (
"349 699 LINE",
"156 699 LINE",
"156 -460 LINE",
"349 -460 LINE"
);
},
{
closed = 1;
nodes = (
"819 719 LINE SMOOTH",
"819 391 OFFCURVE",
"789 237 OFFCURVE",
"494 179 CURVE",
"538 -19 LINE",
"923 56 OFFCURVE",
"1012 257 OFFCURVE",
"1012 652 CURVE SMOOTH",
"1012 1200 LINE",
"819 1200 LINE"
);
}
);
width = 1200;
}
);
unicode = 05E7;
}
{
glyphname = "resh-hb";
layers = (
{
anchors = (
{
name = center;
position = "{402, 590}";
}
);
layerId = master01;
paths = (
{
closed = 1;
nodes = (
"904 1054 OFFCURVE",
"773 1200 OFFCURVE",
"446 1200 CURVE SMOOTH",
"219 1200 LINE SMOOTH",
"169 1200 OFFCURVE",
"127 1230 OFFCURVE",
"97 1253 CURVE",
"43 1174 LINE",
"80 1143 OFFCURVE",
"121 1101 OFFCURVE",
"198 1101 CURVE SMOOTH",
"423 1101 LINE SMOOTH",
"700 1101 OFFCURVE",
"805 997 OFFCURVE",
"805 709 CURVE SMOOTH",
"805 0 LINE",
"904 0 LINE",
"904 718 LINE SMOOTH"
);
}
);
width = 1200;
},
{
anchors = (
{
name = center;
position = "{402, 607}";
}
);
layerId = "8E053A5E-67DA-4970-A6F5-068DBFE5AD21";
paths = (
{
closed = 1;
nodes = (
"969 1079 OFFCURVE",
"856 1200 OFFCURVE",
"464 1200 CURVE SMOOTH",
"293 1200 LINE SMOOTH",
"220 1200 OFFCURVE",
"138 1234 OFFCURVE",
"108 1253 CURVE",
"18 1018 LINE",
"84 970 OFFCURVE",
"181 930 OFFCURVE",
"294 930 CURVE SMOOTH",
"427 930 LINE SMOOTH",
"677 930 OFFCURVE",
"711 874 OFFCURVE",
"711 584 CURVE SMOOTH",
"711 0 LINE",
"969 0 LINE",
"969 707 LINE SMOOTH"
);
}
);
width = 1200;
},
{
anchors = (
{
name = center;
position = "{402, 600}";
}
);
layerId = "1F90C004-9C90-48FA-B407-176B3E9F1E65";
paths = (
{
closed = 1;
nodes = (
"942 1069 OFFCURVE",
"822 1200 OFFCURVE",
"457 1200 CURVE SMOOTH",
"263 1200 LINE SMOOTH",
"199 1200 OFFCURVE",
"133 1232 OFFCURVE",
"103 1253 CURVE",
"28 1082 LINE",
"82 1041 OFFCURVE",
"156 1000 OFFCURVE",
"255 1000 CURVE SMOOTH",
"425 1000 LINE SMOOTH",
"686 1000 OFFCURVE",
"750 924 OFFCURVE",
"750 635 CURVE SMOOTH",
"750 0 LINE",
"942 0 LINE",
"942 712 LINE SMOOTH"
);
}
);
width = 1200;
}
);
unicode = 05E8;
}
{
glyphname = "samekh-hb";
layers = (
{
anchors = (
{
name = center;
position = "{561, 590}";
}
);
layerId = master01;
paths = (
{
closed = 1;
nodes = (
"836 -19 OFFCURVE",
"975 187 OFFCURVE",
"975 527 CURVE SMOOTH",
"975 813 LINE SMOOTH",
"975 1059 OFFCURVE",
"837 1200 OFFCURVE",
"594 1200 CURVE SMOOTH",
"287 1200 LINE SMOOTH",
"237 1200 OFFCURVE",
"195 1230 OFFCURVE",
"165 1253 CURVE",
"111 1174 LINE",
"142 1148 OFFCURVE",
"175 1115 OFFCURVE",
"230 1104 CURVE",
"230 1094 LINE",
"180 1064 OFFCURVE",
"148 969 OFFCURVE",
"148 821 CURVE SMOOTH",
"148 527 LINE SMOOTH",
"148 172 OFFCURVE",
"281 -19 OFFCURVE",
"559 -19 CURVE SMOOTH"
);
},
{
closed = 1;
nodes = (
"344 78 OFFCURVE",
"247 231 OFFCURVE",
"247 532 CURVE SMOOTH",
"247 818 LINE SMOOTH",
"247 927 OFFCURVE",
"248 1101 OFFCURVE",
"409 1101 CURVE SMOOTH",
"594 1101 LINE SMOOTH",
"770 1101 OFFCURVE",
"876 998 OFFCURVE",
"876 813 CURVE SMOOTH",
"876 532 LINE SMOOTH",
"876 231 OFFCURVE",
"774 78 OFFCURVE",
"559 78 CURVE SMOOTH"
);
}
);
width = 1200;
},
{
anchors = (
{
name = center;
position = "{611, 607}";
}
);
layerId = "8E053A5E-67DA-4970-A6F5-068DBFE5AD21";
paths = (
{
closed = 1;
nodes = (
"917 -19 OFFCURVE",
"1054 187 OFFCURVE",
"1054 527 CURVE SMOOTH",
"1054 799 LINE SMOOTH",
"1054 1063 OFFCURVE",
"914 1200 OFFCURVE",
"623 1200 CURVE SMOOTH",
"423 1200 LINE SMOOTH",
"350 1200 OFFCURVE",
"268 1234 OFFCURVE",
"238 1253 CURVE",
"148 1018 LINE",
"197 983 OFFCURVE",
"262 951 OFFCURVE",
"338 937 CURVE",
"338 922 LINE",
"248 892 OFFCURVE",
"183 796 OFFCURVE",
"183 646 CURVE SMOOTH",
"183 527 LINE SMOOTH",
"183 172 OFFCURVE",
"306 -19 OFFCURVE",
"610 -19 CURVE SMOOTH"
);
},
{
closed = 1;
nodes = (
"480 250 OFFCURVE",
"442 403 OFFCURVE",
"442 512 CURVE SMOOTH",
"442 646 LINE SMOOTH",
"442 753 OFFCURVE",
"452 930 OFFCURVE",
"600 930 CURVE SMOOTH",
"610 930 LINE SMOOTH",
"730 930 OFFCURVE",
"796 880 OFFCURVE",
"796 680 CURVE SMOOTH",
"796 512 LINE SMOOTH",
"796 403 OFFCURVE",
"738 250 OFFCURVE",
"610 250 CURVE SMOOTH"
);
}
);
width = 1200;
},
{
anchors = (
{
name = center;
position = "{591, 600}";
}
);
layerId = "1F90C004-9C90-48FA-B407-176B3E9F1E65";
paths = (
{
closed = 1;
nodes = (
"884 -19 OFFCURVE",
"1022 187 OFFCURVE",
"1022 527 CURVE SMOOTH",
"1022 805 LINE SMOOTH",
"1022 1061 OFFCURVE",
"882 1200 OFFCURVE",
"611 1200 CURVE SMOOTH",
"367 1200 LINE SMOOTH",
"304 1200 OFFCURVE",
"238 1232 OFFCURVE",
"208 1253 CURVE",
"133 1082 LINE",
"174 1051 OFFCURVE",
"226 1018 OFFCURVE",
"294 1005 CURVE",
"294 992 LINE",
"220 962 OFFCURVE",
"169 867 OFFCURVE",
"169 718 CURVE SMOOTH",
"169 527 LINE SMOOTH",
"169 172 OFFCURVE",
"296 -19 OFFCURVE",
"589 -19 CURVE SMOOTH"
);
},
{
closed = 1;
nodes = (
"424 180 OFFCURVE",
"362 333 OFFCURVE",
"362 520 CURVE SMOOTH",
"362 716 LINE SMOOTH",
"362 824 OFFCURVE",
"368 1000 OFFCURVE",
"522 1000 CURVE SMOOTH",
"603 1000 LINE SMOOTH",
"746 1000 OFFCURVE",
"829 928 OFFCURVE",
"829 735 CURVE SMOOTH",
"829 520 LINE SMOOTH",
"829 333 OFFCURVE",
"753 180 OFFCURVE",
"589 180 CURVE SMOOTH"
);
}
);
width = 1200;
}
);
unicode = 05E1;
}
{
glyphname = "shin-hb";
layers = (
{
anchors = (
{
name = center;
position = "{634, 360}";
},
{
name = topleft;
position = "{195, 1200}";
},
{
name = topright;
position = "{927, 1201}";
}
);
layerId = master01;
paths = (
{
closed = 1;
nodes = (
"782 -19 OFFCURVE",
"976 113 OFFCURVE",
"976 608 CURVE SMOOTH",
"976 1200 LINE",
"877 1200 LINE",
"877 610 LINE SMOOTH",
"877 150 OFFCURVE",
"696 80 OFFCURVE",
"372 80 CURVE SMOOTH",
"244 80 OFFCURVE",
"195 95 OFFCURVE",
"187 99 CURVE",
"147 0 LINE",
"178 -6 OFFCURVE",
"260 -19 OFFCURVE",
"378 -19 CURVE SMOOTH"
);
},
{
closed = 1;
nodes = (
"246 1200 LINE",
"147 1200 LINE",
"147 0 LINE",
"246 0 LINE"
);
},
{
closed = 1;
nodes = (
"497 473 OFFCURVE",
"615 550 OFFCURVE",
"615 833 CURVE SMOOTH",
"615 1200 LINE",
"516 1200 LINE",
"516 838 LINE SMOOTH",
"516 601 OFFCURVE",
"415 554 OFFCURVE",
"315 554 CURVE SMOOTH",
"284 554 OFFCURVE",
"266 556 OFFCURVE",
"245 567 CURVE",
"215 503 LINE",
"271 481 OFFCURVE",
"293 473 OFFCURVE",
"354 473 CURVE SMOOTH"
);
}
);
width = 1200;
},
{
anchors = (
{
name = center;
position = "{628, 393}";
},
{
name = topleft;
position = "{262, 1200}";
},
{
name = topright;
position = "{930, 1201}";
}
);
layerId = "8E053A5E-67DA-4970-A6F5-068DBFE5AD21";
paths = (
{
closed = 1;
nodes = (
"937 -19 OFFCURVE",
"1064 219 OFFCURVE",
"1064 589 CURVE SMOOTH",
"1064 1200 LINE",
"806 1200 LINE",
"806 589 LINE SMOOTH",
"806 366 OFFCURVE",
"702 251 OFFCURVE",
"476 251 CURVE SMOOTH",
"419 251 OFFCURVE",
"206 263 OFFCURVE",
"180 271 CURVE",
"130 0 LINE",
"208 -11 OFFCURVE",
"335 -19 OFFCURVE",
"410 -19 CURVE SMOOTH"
);
},
{
closed = 1;
nodes = (
"386 1200 LINE",
"128 1200 LINE",
"128 1 LINE",
"386 -1 LINE"
);
},
{
closed = 1;
nodes = (
"628 473 OFFCURVE",
"698 568 OFFCURVE",
"698 809 CURVE SMOOTH",
"698 1200 LINE",
"495 1200 LINE",
"495 818 LINE SMOOTH",
"495 680 OFFCURVE",
"476 624 OFFCURVE",
"437 624 CURVE SMOOTH",
"410 624 OFFCURVE",
"388 633 OFFCURVE",
"372 652 CURVE",
"333 563 LINE",
"361 520 OFFCURVE",
"414 473 OFFCURVE",
"496 473 CURVE SMOOTH"
);
}
);
width = 1200;
},
{
anchors = (
{
name = center;
position = "{630, 379}";
},
{
name = topleft;
position = "{235, 1200}";
},
{
name = topright;
position = "{929, 1201}";
}
);
layerId = "1F90C004-9C90-48FA-B407-176B3E9F1E65";
paths = (
{
closed = 1;
nodes = (
"873 -19 OFFCURVE",
"1028 176 OFFCURVE",
"1028 597 CURVE SMOOTH",
"1028 1200 LINE",
"835 1200 LINE",
"835 598 LINE SMOOTH",
"835 277 OFFCURVE",
"700 181 OFFCURVE",
"433 181 CURVE SMOOTH",
"347 181 OFFCURVE",
"201 194 OFFCURVE",
"183 201 CURVE",
"137 0 LINE",
"196 -9 OFFCURVE",
"304 -19 OFFCURVE",
"397 -19 CURVE SMOOTH"
);
},
{
closed = 1;
nodes = (
"329 1200 LINE",
"136 1200 LINE",
"136 1 LINE",
"329 -1 LINE"
);
},
{
closed = 1;
nodes = (
"574 473 OFFCURVE",
"664 561 OFFCURVE",
"664 819 CURVE SMOOTH",
"664 1200 LINE",
"504 1200 LINE",
"504 826 LINE SMOOTH",
"504 648 OFFCURVE",
"451 595 OFFCURVE",
"387 595 CURVE SMOOTH",
"358 595 OFFCURVE",
"338 601 OFFCURVE",
"320 617 CURVE",
"285 538 LINE",
"324 504 OFFCURVE",
"364 473 OFFCURVE",
"438 473 CURVE SMOOTH"
);
}
);
width = 1200;
}
);
unicode = 05E9;
}
{
glyphname = "sindot-hb";
layers = (
{
anchors = (
{
name = _topleft;
position = "{600, 1200}";
}
);
layerId = master01;
paths = (
{
closed = 1;
nodes = (
"650 1379 OFFCURVE",
"691 1419 OFFCURVE",
"691 1469 CURVE SMOOTH",
"691 1519 OFFCURVE",
"650 1560 OFFCURVE",
"600 1560 CURVE SMOOTH",
"550 1560 OFFCURVE",
"509 1519 OFFCURVE",
"509 1469 CURVE SMOOTH",
"509 1419 OFFCURVE",
"550 1379 OFFCURVE",
"600 1379 CURVE SMOOTH"
);
}
);
width = 1200;
},
{
anchors = (
{
name = _topleft;
position = "{600, 1200}";
}
);
layerId = "8E053A5E-67DA-4970-A6F5-068DBFE5AD21";
paths = (
{
closed = 1;
nodes = (
"650 1379 OFFCURVE",
"691 1419 OFFCURVE",
"691 1469 CURVE SMOOTH",
"691 1519 OFFCURVE",
"650 1560 OFFCURVE",
"600 1560 CURVE SMOOTH",
"550 1560 OFFCURVE",
"509 1519 OFFCURVE",
"509 1469 CURVE SMOOTH",
"509 1419 OFFCURVE",
"550 1379 OFFCURVE",
"600 1379 CURVE SMOOTH"
);
}
);
width = 1200;
},
{
anchors = (
{
name = _topleft;
position = "{600, 1200}";
}
);
layerId = "1F90C004-9C90-48FA-B407-176B3E9F1E65";
paths = (
{
closed = 1;
nodes = (
"650 1379 OFFCURVE",
"691 1419 OFFCURVE",
"691 1469 CURVE SMOOTH",
"691 1519 OFFCURVE",
"650 1560 OFFCURVE",
"600 1560 CURVE SMOOTH",
"550 1560 OFFCURVE",
"509 1519 OFFCURVE",
"509 1469 CURVE SMOOTH",
"509 1419 OFFCURVE",
"550 1379 OFFCURVE",
"600 1379 CURVE SMOOTH"
);
}
);
width = 1200;
}
);
unicode = 05C2;
}
{
glyphname = "tav-hb";
layers = (
{
anchors = (
{
name = center;
position = "{627, 590}";
}
);
layerId = master01;
paths = (
{
closed = 1;
nodes = (
"1035 1200 LINE",
"936 1200 LINE",
"936 0 LINE",
"1035 0 LINE"
);
},
{
closed = 1;
nodes = (
"291 1056 OFFCURVE",
"218 957 OFFCURVE",
"218 789 CURVE SMOOTH",
"218 0 LINE",
"317 0 LINE",
"317 770 LINE SMOOTH",
"317 992 OFFCURVE",
"391 1101 OFFCURVE",
"627 1101 CURVE",
"370 1169 LINE",
"370 1094 LINE"
);
},
{
closed = 1;
nodes = (
"157 1200 LINE",
"157 1108 LINE",
"298 1101 LINE",
"1034 1101 LINE",
"1034 1200 LINE"
);
},
{
closed = 1;
nodes = (
"30 99 LINE",
"30 0 LINE",
"317 0 LINE",
"317 99 LINE"
);
}
);
width = 1200;
},
{
anchors = (
{
name = center;
position = "{636, 607}";
}
);
layerId = "8E053A5E-67DA-4970-A6F5-068DBFE5AD21";
paths = (
{
closed = 1;
nodes = (
"1093 1200 LINE",
"835 1200 LINE",
"835 0 LINE",
"1093 0 LINE"
);
},
{
closed = 1;
nodes = (
"246 884 OFFCURVE",
"184 823 OFFCURVE",
"184 616 CURVE SMOOTH",
"184 0 LINE",
"442 0 LINE",
"442 597 LINE SMOOTH",
"442 819 OFFCURVE",
"456 931 OFFCURVE",
"636 931 CURVE",
"336 995 LINE",
"336 923 LINE"
);
},
{
closed = 1;
nodes = (
"163 1200 LINE",
"163 959 LINE",
"366 930 LINE",
"1092 930 LINE",
"1092 1200 LINE"
);
},
{
closed = 1;
nodes = (
"26 270 LINE",
"26 0 LINE",
"370 0 LINE",
"370 270 LINE"
);
}
);
width = 1200;
},
{
anchors = (
{
name = center;
position = "{632, 600}";
}
);
layerId = "1F90C004-9C90-48FA-B407-176B3E9F1E65";
paths = (
{
closed = 1;
nodes = (
"1069 1200 LINE",
"876 1200 LINE",
"876 0 LINE",
"1069 0 LINE"
);
},
{
closed = 1;
nodes = (
"264 954 OFFCURVE",
"198 878 OFFCURVE",
"198 687 CURVE SMOOTH",
"198 0 LINE",
"391 0 LINE",
"391 668 LINE SMOOTH",
"391 890 OFFCURVE",
"429 1001 OFFCURVE",
"632 1001 CURVE",
"350 1066 LINE",
"350 993 LINE"
);
},
{
closed = 1;
nodes = (
"161 1200 LINE",
"161 1020 LINE",
"338 1000 LINE",
"1068 1000 LINE",
"1068 1200 LINE"
);
},
{
closed = 1;
nodes = (
"28 200 LINE",
"28 0 LINE",
"348 0 LINE",
"348 200 LINE"
);
}
);
width = 1200;
}
);
unicode = 05EA;
}
{
glyphname = "tet-hb";
layers = (
{
anchors = (
{
name = center;
position = "{552, 452}";
}
);
layerId = master01;
paths = (
{
closed = 1;
nodes = (
"782 -19 OFFCURVE",
"976 113 OFFCURVE",
"976 608 CURVE SMOOTH",
"976 818 LINE SMOOTH",
"976 1061 OFFCURVE",
"836 1200 OFFCURVE",
"553 1200 CURVE",
"518 1058 OFFCURVE",
"494 939 OFFCURVE",
"465 731 CURVE",
"565 731 LINE",
"592 937 OFFCURVE",
"616 1043 OFFCURVE",
"628 1092 CURVE",
"760 1092 OFFCURVE",
"877 997 OFFCURVE",
"877 809 CURVE SMOOTH",
"877 610 LINE SMOOTH",
"877 150 OFFCURVE",
"696 80 OFFCURVE",
"372 80 CURVE SMOOTH",
"244 80 OFFCURVE",
"199 98 OFFCURVE",
"187 99 CURVE",
"147 0 LINE",
"178 -6 OFFCURVE",
"260 -19 OFFCURVE",
"378 -19 CURVE SMOOTH"
);
},
{
closed = 1;
nodes = (
"246 0 LINE",
"246 1200 LINE",
"147 1200 LINE",
"147 0 LINE"
);
}
);
width = 1200;
},
{
anchors = (
{
name = center;
position = "{592, 517}";
}
);
guideLines = (
{
angle = 180;
position = "{1174, 929}";
}
);
layerId = "8E053A5E-67DA-4970-A6F5-068DBFE5AD21";
paths = (
{
closed = 1;
nodes = (
"946 -20 OFFCURVE",
"1073 238 OFFCURVE",
"1073 608 CURVE SMOOTH",
"1073 768 LINE SMOOTH",
"1073 1020 OFFCURVE",
"914 1200 OFFCURVE",
"591 1200 CURVE",
"564 1109 OFFCURVE",
"532 939 OFFCURVE",
"503 731 CURVE",
"703 731 LINE",
"729 861 OFFCURVE",
"731 880 OFFCURVE",
"743 929 CURVE",
"758 929 OFFCURVE",
"805 897 OFFCURVE",
"805 709 CURVE SMOOTH",
"805 608 LINE SMOOTH",
"805 385 OFFCURVE",
"752 270 OFFCURVE",
"510 270 CURVE SMOOTH",
"447 270 OFFCURVE",
"360 273 OFFCURVE",
"239 290 CURVE",
"134 0 LINE",
"212 -16 OFFCURVE",
"365 -20 OFFCURVE",
"450 -20 CURVE SMOOTH"
);
},
{
closed = 1;
nodes = (
"402 0 LINE",
"402 1200 LINE",
"134 1200 LINE",
"134 0 LINE"
);
}
);
width = 1200;
},
{
anchors = (
{
name = center;
position = "{576, 490}";
}
);
layerId = "1F90C004-9C90-48FA-B407-176B3E9F1E65";
paths = (
{
closed = 1;
nodes = (
"879 -20 OFFCURVE",
"1033 187 OFFCURVE",
"1033 608 CURVE SMOOTH",
"1033 788 LINE SMOOTH",
"1033 1037 OFFCURVE",
"882 1200 OFFCURVE",
"575 1200 CURVE",
"545 1088 OFFCURVE",
"516 939 OFFCURVE",
"487 731 CURVE",
"646 731 LINE",
"673 892 OFFCURVE",
"684 947 OFFCURVE",
"696 996 CURVE",
"759 996 OFFCURVE",
"835 938 OFFCURVE",
"835 750 CURVE SMOOTH",
"835 609 LINE SMOOTH",
"835 289 OFFCURVE",
"729 192 OFFCURVE",
"453 192 CURVE SMOOTH",
"364 192 OFFCURVE",
"294 201 OFFCURVE",
"218 212 CURVE",
"139 0 LINE",
"198 -12 OFFCURVE",
"322 -20 OFFCURVE",
"420 -20 CURVE SMOOTH"
);
},
{
closed = 1;
nodes = (
"338 0 LINE",
"338 1200 LINE",
"139 1200 LINE",
"139 0 LINE"
);
}
);
width = 1200;
}
);
unicode = 05D8;
}
{
glyphname = "tsadi-hb";
layers = (
{
anchors = (
{
name = center;
position = "{393, 361}";
}
);
layerId = master01;
paths = (
{
closed = 1;
nodes = (
"936 0 LINE",
"936 99 LINE",
"217 1200 LINE",
"101 1200 LINE",
"882 0 LINE"
);
},
{
closed = 1;
nodes = (
"936 0 LINE",
"936 99 LINE",
"118 99 LINE",
"118 0 LINE"
);
},
{
closed = 1;
nodes = (
"736 513 OFFCURVE",
"930 588 OFFCURVE",
"949 907 CURVE SMOOTH",
"954 991 OFFCURVE",
"960 1094 OFFCURVE",
"960 1200 CURVE",
"862 1200 LINE",
"862 1094 OFFCURVE",
"856 975 OFFCURVE",
"848 869 CURVE SMOOTH",
"834 687 OFFCURVE",
"731 582 OFFCURVE",
"577 582 CURVE",
"607 513 LINE"
);
},
{
closed = 1;
nodes = (
"951 1101 LINE",
"951 1200 LINE",
"684 1200 LINE",
"684 1101 LINE"
);
}
);
width = 1200;
},
{
anchors = (
{
name = center;
position = "{330, 467}";
}
);
layerId = "8E053A5E-67DA-4970-A6F5-068DBFE5AD21";
paths = (
{
closed = 1;
nodes = (
"1008 0 LINE",
"1008 270 LINE",
"414 1200 LINE",
"83 1200 LINE",
"844 0 LINE"
);
},
{
closed = 1;
nodes = (
"1008 0 LINE",
"1008 270 LINE",
"112 270 LINE",
"112 0 LINE"
);
},
{
closed = 1;
nodes = (
"813 496 OFFCURVE",
"1007 538 OFFCURVE",
"1026 857 CURVE SMOOTH",
"1031 941 OFFCURVE",
"1037 1094 OFFCURVE",
"1037 1200 CURVE",
"792 1200 LINE",
"792 1094 OFFCURVE",
"792 975 OFFCURVE",
"785 869 CURVE SMOOTH",
"773 687 OFFCURVE",
"741 618 OFFCURVE",
"605 618 CURVE",
"574 496 LINE"
);
},
{
closed = 1;
nodes = (
"958 930 LINE",
"1028 1200 LINE",
"691 1200 LINE",
"691 930 LINE"
);
}
);
width = 1200;
},
{
anchors = (
{
name = center;
position = "{356, 424}";
}
);
layerId = "1F90C004-9C90-48FA-B407-176B3E9F1E65";
paths = (
{
closed = 1;
nodes = (
"978 0 LINE",
"978 200 LINE",
"333 1200 LINE",
"90 1200 LINE",
"860 0 LINE"
);
},
{
closed = 1;
nodes = (
"978 0 LINE",
"978 200 LINE",
"114 200 LINE",
"114 0 LINE"
);
},
{
closed = 1;
nodes = (
"781 503 OFFCURVE",
"975 558 OFFCURVE",
"994 877 CURVE SMOOTH",
"999 961 OFFCURVE",
"1005 1094 OFFCURVE",
"1005 1200 CURVE",
"821 1200 LINE",
"821 1094 OFFCURVE",
"819 975 OFFCURVE",
"811 869 CURVE SMOOTH",
"797 687 OFFCURVE",
"737 603 OFFCURVE",
"594 603 CURVE",
"588 503 LINE"
);
},
{
closed = 1;
nodes = (
"955 1000 LINE",
"996 1200 LINE",
"688 1200 LINE",
"688 1000 LINE"
);
}
);
width = 1200;
}
);
unicode = 05E6;
}
{
glyphname = "vav-hb";
layers = (
{
anchors = (
{
name = center;
position = "{400, 590}";
},
{
name = top;
position = "{480, 1200}";
}
);
guideLines = (
{
angle = 90;
position = "{1153, 634}";
},
{
angle = 90;
position = "{45, 609}";
}
);
layerId = master01;
paths = (
{
closed = 1;
nodes = (
"758 0 LINE",
"758 1200 LINE",
"659 1200 LINE",
"659 0 LINE"
);
},
{
closed = 1;
nodes = (
"757 1101 LINE",
"757 1200 LINE",
"191 1200 LINE",
"191 1101 LINE"
);
}
);
width = 1200;
},
{
anchors = (
{
name = center;
position = "{362, 607}";
},
{
name = top;
position = "{510, 1200}";
}
);
layerId = "8E053A5E-67DA-4970-A6F5-068DBFE5AD21";
paths = (
{
closed = 1;
nodes = (
"846 0 LINE",
"846 1200 LINE",
"583 1200 LINE",
"583 0 LINE"
);
},
{
closed = 1;
nodes = (
"844 930 LINE",
"844 1200 LINE",
"174 1200 LINE",
"174 930 LINE"
);
}
);
width = 1200;
},
{
anchors = (
{
name = center;
position = "{378, 600}";
},
{
name = top;
position = "{494, 1200}";
}
);
layerId = "1F90C004-9C90-48FA-B407-176B3E9F1E65";
paths = (
{
closed = 1;
nodes = (
"809 0 LINE",
"809 1200 LINE",
"614 1200 LINE",
"614 0 LINE"
);
},
{
closed = 1;
nodes = (
"808 1000 LINE",
"808 1200 LINE",
"181 1200 LINE",
"181 1000 LINE"
);
}
);
width = 1200;
}
);
unicode = 05D5;
}
{
glyphname = "yod-hb";
layers = (
{
anchors = (
{
name = center;
position = "{331, 694}";
}
);
layerId = master01;
paths = (
{
closed = 1;
nodes = (
"749 666 OFFCURVE",
"776 764 OFFCURVE",
"776 918 CURVE SMOOTH",
"776 1200 LINE",
"677 1200 LINE",
"677 918 LINE SMOOTH",
"677 764 OFFCURVE",
"657 694 OFFCURVE",
"627 622 CURVE",
"719 594 LINE"
);
},
{
closed = 1;
nodes = (
"776 1101 LINE",
"776 1200 LINE",
"149 1200 LINE",
"149 1101 LINE"
);
}
);
width = 1200;
},
{
anchors = (
{
name = center;
position = "{342, 647}";
}
);
layerId = "8E053A5E-67DA-4970-A6F5-068DBFE5AD21";
paths = (
{
closed = 1;
nodes = (
"878 513 OFFCURVE",
"894 693 OFFCURVE",
"894 848 CURVE SMOOTH",
"894 1200 LINE",
"638 1200 LINE",
"638 848 LINE SMOOTH",
"638 693 OFFCURVE",
"626 575 OFFCURVE",
"574 460 CURVE",
"807 394 LINE"
);
},
{
closed = 1;
nodes = (
"894 929 LINE",
"894 1200 LINE",
"170 1200 LINE",
"170 929 LINE"
);
}
);
width = 1200;
},
{
anchors = (
{
name = center;
position = "{337, 666}";
}
);
layerId = "1F90C004-9C90-48FA-B407-176B3E9F1E65";
paths = (
{
closed = 1;
nodes = (
"825 576 OFFCURVE",
"846 722 OFFCURVE",
"846 877 CURVE SMOOTH",
"846 1200 LINE",
"654 1200 LINE",
"654 877 LINE SMOOTH",
"654 722 OFFCURVE",
"639 624 OFFCURVE",
"596 526 CURVE",
"771 476 LINE"
);
},
{
closed = 1;
nodes = (
"846 999 LINE",
"846 1200 LINE",
"161 1200 LINE",
"161 999 LINE"
);
}
);
width = 1200;
}
);
unicode = 05D9;
}
{
glyphname = "zayin-hb";
layers = (
{
anchors = (
{
name = center;
position = "{274, 590}";
}
);
layerId = master01;
paths = (
{
closed = 1;
nodes = (
"171 1200 LINE",
"171 1101 LINE",
"862 1101 LINE",
"862 1200 LINE"
);
},
{
closed = 1;
nodes = (
"563 1061 OFFCURVE",
"512 958 OFFCURVE",
"512 789 CURVE SMOOTH",
"512 0 LINE",
"611 0 LINE",
"611 770 LINE SMOOTH",
"611 992 OFFCURVE",
"635 1102 OFFCURVE",
"781 1102 CURVE",
"614 1169 LINE",
"614 1094 LINE"
);
}
);
width = 1200;
},
{
anchors = (
{
name = center;
position = "{282, 607}";
}
);
layerId = "8E053A5E-67DA-4970-A6F5-068DBFE5AD21";
paths = (
{
closed = 1;
nodes = (
"184 1200 LINE",
"184 930 LINE",
"924 930 LINE",
"924 1200 LINE"
);
},
{
closed = 1;
nodes = (
"536 893 OFFCURVE",
"451 804 OFFCURVE",
"451 665 CURVE SMOOTH",
"451 0 LINE",
"709 0 LINE",
"709 646 LINE SMOOTH",
"709 755 OFFCURVE",
"733 929 OFFCURVE",
"871 929 CURVE",
"603 994 LINE",
"603 922 LINE"
);
}
);
width = 1200;
},
{
anchors = (
{
name = center;
position = "{279, 600}";
}
);
layerId = "1F90C004-9C90-48FA-B407-176B3E9F1E65";
paths = (
{
closed = 1;
nodes = (
"179 1200 LINE",
"179 1000 LINE",
"899 1000 LINE",
"899 1200 LINE"
);
},
{
closed = 1;
nodes = (
"547 962 OFFCURVE",
"476 867 OFFCURVE",
"476 716 CURVE SMOOTH",
"476 0 LINE",
"669 0 LINE",
"669 697 LINE SMOOTH",
"669 852 OFFCURVE",
"693 1000 OFFCURVE",
"834 1000 CURVE",
"608 1066 LINE",
"608 992 LINE"
);
}
);
width = 1200;
}
);
unicode = 05D6;
}
{
color = 10;
glyphname = l;
layers = (
{
anchors = (
{
name = bottom;
position = "{680, 0}";
},
{
name = center;
position = "{520, 784}";
},
{
name = top;
position = "{516, 1500}";
},
{
name = topright;
position = "{970, 1500}";
}
);
layerId = master01;
paths = (
{
closed = 1;
nodes = (
"908 -20 OFFCURVE",
"974 -11 OFFCURVE",
"1050 12 CURVE",
"1039 101 LINE",
"956 81 OFFCURVE",
"895 72 OFFCURVE",
"838 72 CURVE SMOOTH",
"654 72 OFFCURVE",
"563 164 OFFCURVE",
"563 350 CURVE SMOOTH",
"563 1500 LINE",
"469 1500 LINE",
"469 350 LINE SMOOTH",
"469 103 OFFCURVE",
"588 -20 OFFCURVE",
"828 -20 CURVE SMOOTH"
);
},
{
closed = 1;
nodes = (
"487 1410 LINE",
"487 1500 LINE",
"122 1500 LINE",
"122 1410 LINE"
);
}
);
width = 1200;
},
{
anchors = (
{
name = bottom;
position = "{680, 0}";
},
{
name = center;
position = "{520, 784}";
},
{
name = top;
position = "{516, 1500}";
},
{
name = topright;
position = "{970, 1500}";
}
);
layerId = "1F90C004-9C90-48FA-B407-176B3E9F1E65";
paths = (
{
closed = 1;
nodes = (
"872 -20 OFFCURVE",
"966 -8 OFFCURVE",
"1074 22 CURVE",
"1050 208 LINE",
"962 182 OFFCURVE",
"898 170 OFFCURVE",
"838 170 CURVE SMOOTH",
"656 170 OFFCURVE",
"622 242 OFFCURVE",
"622 410 CURVE SMOOTH",
"622 1500 LINE",
"410 1500 LINE",
"410 400 LINE SMOOTH",
"410 106 OFFCURVE",
"512 -20 OFFCURVE",
"758 -20 CURVE SMOOTH"
);
},
{
closed = 1;
nodes = (
"428 1314 LINE",
"428 1500 LINE",
"98 1500 LINE",
"98 1314 LINE"
);
}
);
width = 1200;
},
{
anchors = (
{
name = bottom;
position = "{680, 0}";
},
{
name = center;
position = "{520, 784}";
},
{
name = top;
position = "{516, 1500}";
},
{
name = topright;
position = "{970, 1500}";
}
);
layerId = "8E053A5E-67DA-4970-A6F5-068DBFE5AD21";
paths = (
{
closed = 1;
nodes = (
"878 -20 OFFCURVE",
"977 -8 OFFCURVE",
"1091 22 CURVE",
"1060 300 LINE",
"968 274 OFFCURVE",
"901 262 OFFCURVE",
"838 262 CURVE SMOOTH",
"680 262 OFFCURVE",
"651 319 OFFCURVE",
"651 452 CURVE SMOOTH",
"651 1500 LINE",
"381 1500 LINE",
"381 442 LINE SMOOTH",
"381 119 OFFCURVE",
"491 -20 OFFCURVE",
"758 -20 CURVE SMOOTH"
);
},
{
closed = 1;
nodes = (
"399 1251 LINE",
"399 1500 LINE",
"81 1500 LINE",
"81 1251 LINE"
);
}
);
width = 1200;
}
);
unicode = 006C;
}
{
color = 10;
glyphname = asciitilde;
layers = (
{
layerId = master01;
paths = (
{
closed = 1;
nodes = (
"214 486 LINE",
"214 576 LINE SMOOTH",
"214 737 OFFCURVE",
"260 806 OFFCURVE",
"369 806 CURVE SMOOTH",
"431 806 OFFCURVE",
"485 774 OFFCURVE",
"594 664 CURVE SMOOTH",
"702 555 OFFCURVE",
"763 520 OFFCURVE",
"860 520 CURVE SMOOTH",
"1011 520 OFFCURVE",
"1076 619 OFFCURVE",
"1076 850 CURVE SMOOTH",
"1076 930 LINE",
"986 930 LINE",
"986 840 LINE SMOOTH",
"986 679 OFFCURVE",
"949 610 OFFCURVE",
"859 610 CURVE SMOOTH",
"801 610 OFFCURVE",
"748 641 OFFCURVE",
"635 747 CURVE SMOOTH",
"514 860 OFFCURVE",
"453 896 OFFCURVE",
"370 896 CURVE SMOOTH",
"198 896 OFFCURVE",
"124 797 OFFCURVE",
"124 566 CURVE SMOOTH",
"124 486 LINE"
);
}
);
width = 1200;
},
{
layerId = "1F90C004-9C90-48FA-B407-176B3E9F1E65";
paths = (
{
closed = 1;
nodes = (
"302 486 LINE",
"302 576 LINE SMOOTH",
"302 659 OFFCURVE",
"334 695 OFFCURVE",
"409 695 CURVE SMOOTH",
"477 695 OFFCURVE",
"536 650 OFFCURVE",
"604 609 CURVE SMOOTH",
"680 563 OFFCURVE",
"765 520 OFFCURVE",
"860 520 CURVE SMOOTH",
"1028 520 OFFCURVE",
"1100 619 OFFCURVE",
"1100 850 CURVE SMOOTH",
"1100 930 LINE",
"898 930 LINE",
"898 840 LINE SMOOTH",
"898 757 OFFCURVE",
"873 721 OFFCURVE",
"813 721 CURVE SMOOTH",
"750 721 OFFCURVE",
"695 768 OFFCURVE",
"630 807 CURVE SMOOTH",
"553 853 OFFCURVE",
"467 896 OFFCURVE",
"370 896 CURVE SMOOTH",
"181 896 OFFCURVE",
"100 797 OFFCURVE",
"100 566 CURVE SMOOTH",
"100 486 LINE"
);
}
);
width = 1200;
},
{
layerId = "8E053A5E-67DA-4970-A6F5-068DBFE5AD21";
paths = (
{
closed = 1;
nodes = (
"349 453 LINE",
"349 559 LINE SMOOTH",
"349 619 OFFCURVE",
"375 645 OFFCURVE",
"437 645 CURVE SMOOTH",
"495 645 OFFCURVE",
"548 613 OFFCURVE",
"604 576 CURVE SMOOTH",
"679 526 OFFCURVE",
"760 487 OFFCURVE",
"852 487 CURVE SMOOTH",
"1037 487 OFFCURVE",
"1117 586 OFFCURVE",
"1117 817 CURVE SMOOTH",
"1117 963 LINE",
"853 963 LINE",
"853 857 LINE SMOOTH",
"853 797 OFFCURVE",
"831 771 OFFCURVE",
"776 771 CURVE SMOOTH",
"726 771 OFFCURVE",
"683 806 OFFCURVE",
"630 840 CURVE SMOOTH",
"556 890 OFFCURVE",
"472 929 OFFCURVE",
"378 929 CURVE SMOOTH",
"172 929 OFFCURVE",
"83 830 OFFCURVE",
"83 599 CURVE SMOOTH",
"83 453 LINE"
);
}
);
width = 1200;
}
);
unicode = 007E;
}
{
color = 10;
glyphname = z;
layers = (
{
anchors = (
{
name = bottom;
position = "{600, 0}";
},
{
name = center;
position = "{600, 530}";
},
{
name = top;
position = "{600, 1060}";
}
);
layerId = master01;
paths = (
{
closed = 1;
nodes = (
"992 970 LINE",
"927 1025 LINE",
"188 90 LINE",
"253 33 LINE"
);
},
{
closed = 1;
nodes = (
"1012 0 LINE",
"1012 90 LINE",
"188 90 LINE",
"188 0 LINE"
);
},
{
closed = 1;
nodes = (
"992 970 LINE",
"992 1060 LINE",
"188 1060 LINE",
"188 970 LINE"
);
}
);
width = 1200;
},
{
anchors = (
{
name = bottom;
position = "{600, 0}";
},
{
name = center;
position = "{600, 530}";
},
{
name = top;
position = "{600, 1060}";
}
);
layerId = "1F90C004-9C90-48FA-B407-176B3E9F1E65";
paths = (
{
closed = 1;
nodes = (
"1016 872 LINE",
"870 990 LINE",
"164 188 LINE",
"310 66 LINE"
);
},
{
closed = 1;
nodes = (
"1036 0 LINE",
"1036 188 LINE",
"164 188 LINE",
"164 0 LINE"
);
},
{
closed = 1;
nodes = (
"1016 872 LINE",
"1016 1060 LINE",
"164 1060 LINE",
"164 872 LINE"
);
}
);
width = 1200;
},
{
anchors = (
{
name = bottom;
position = "{600, 0}";
},
{
name = center;
position = "{600, 530}";
},
{
name = top;
position = "{600, 1060}";
}
);
layerId = "8E053A5E-67DA-4970-A6F5-068DBFE5AD21";
paths = (
{
closed = 1;
nodes = (
"1016 827 LINE",
"820 945 LINE",
"164 233 LINE",
"373 111 LINE"
);
},
{
closed = 1;
nodes = (
"1036 0 LINE",
"1036 233 LINE",
"164 233 LINE",
"164 0 LINE"
);
},
{
closed = 1;
nodes = (
"1016 827 LINE",
"1016 1060 LINE",
"164 1060 LINE",
"164 827 LINE"
);
}
);
width = 1200;
}
);
unicode = 007A;
}
{
glyphname = sheqel;
layers = (
{
layerId = master01;
paths = (
{
closed = 1;
nodes = (
"901 -19 OFFCURVE",
"1096 113 OFFCURVE",
"1096 608 CURVE SMOOTH",
"1096 1200 LINE",
"997 1200 LINE",
"997 610 LINE SMOOTH",
"997 150 OFFCURVE",
"816 80 OFFCURVE",
"612 80 CURVE SMOOTH",
"487 80 OFFCURVE",
"447 95 OFFCURVE",
"430 99 CURVE",
"390 0 LINE",
"421 -6 OFFCURVE",
"503 -19 OFFCURVE",
"618 -19 CURVE SMOOTH"
);
},
{
closed = 1;
nodes = (
"185 0 LINE",
"185 820 LINE SMOOTH",
"185 929 OFFCURVE",
"189 1101 OFFCURVE",
"327 1101 CURVE",
"168 1171 LINE",
"168 1094 LINE",
"120 1065 OFFCURVE",
"86 978 OFFCURVE",
"86 839 CURVE SMOOTH",
"86 0 LINE"
);
},
{
closed = 1;
nodes = (
"489 0 LINE",
"489 904 LINE",
"390 904 LINE",
"390 0 LINE"
);
},
{
closed = 1;
nodes = (
"794 376 LINE",
"794 957 LINE SMOOTH",
"794 1119 OFFCURVE",
"721 1200 OFFCURVE",
"559 1200 CURVE SMOOTH",
"225 1200 LINE SMOOTH",
"175 1200 OFFCURVE",
"133 1230 OFFCURVE",
"103 1253 CURVE",
"49 1174 LINE",
"86 1143 OFFCURVE",
"127 1101 OFFCURVE",
"204 1101 CURVE SMOOTH",
"546 1101 LINE SMOOTH",
"646 1101 OFFCURVE",
"695 1045 OFFCURVE",
"695 925 CURVE SMOOTH",
"695 376 LINE"
);
}
);
width = 1200;
},
{
layerId = "1F90C004-9C90-48FA-B407-176B3E9F1E65";
paths = (
{
closed = 1;
nodes = (
"977 -19 OFFCURVE",
"1120 176 OFFCURVE",
"1120 597 CURVE SMOOTH",
"1120 1200 LINE",
"921 1200 LINE",
"921 544 LINE SMOOTH",
"921 224 OFFCURVE",
"804 181 OFFCURVE",
"640 181 CURVE SMOOTH",
"549 181 OFFCURVE",
"507 192 OFFCURVE",
"472 201 CURVE",
"409 0 LINE",
"468 -12 OFFCURVE",
"531 -19 OFFCURVE",
"615 -19 CURVE SMOOTH"
);
},
{
closed = 1;
nodes = (
"279 0 LINE",
"279 770 LINE SMOOTH",
"279 876 OFFCURVE",
"281 999 OFFCURVE",
"416 999 CURVE",
"210 1067 LINE",
"210 992 LINE",
"139 963 OFFCURVE",
"87 875 OFFCURVE",
"87 736 CURVE SMOOTH",
"87 0 LINE"
);
},
{
closed = 1;
nodes = (
"542 -1 LINE",
"542 852 LINE",
"408 852 LINE",
"408 1 LINE"
);
},
{
closed = 1;
nodes = (
"796 366 LINE",
"796 951 LINE SMOOTH",
"796 1114 OFFCURVE",
"717 1200 OFFCURVE",
"574 1200 CURVE SMOOTH",
"283 1200 LINE SMOOTH",
"220 1200 OFFCURVE",
"154 1232 OFFCURVE",
"124 1253 CURVE",
"49 1082 LINE",
"94 1047 OFFCURVE",
"161 999 OFFCURVE",
"235 999 CURVE SMOOTH",
"529 999 LINE SMOOTH",
"645 999 OFFCURVE",
"667 919 OFFCURVE",
"667 813 CURVE SMOOTH",
"667 366 LINE"
);
}
);
width = 1200;
},
{
layerId = "8E053A5E-67DA-4970-A6F5-068DBFE5AD21";
paths = (
{
closed = 1;
nodes = (
"1030 -19 OFFCURVE",
"1137 219 OFFCURVE",
"1137 589 CURVE SMOOTH",
"1137 1200 LINE",
"869 1200 LINE",
"869 499 LINE SMOOTH",
"869 276 OFFCURVE",
"795 251 OFFCURVE",
"659 251 CURVE SMOOTH",
"592 251 OFFCURVE",
"549 259 OFFCURVE",
"501 271 CURVE",
"423 0 LINE",
"501 -16 OFFCURVE",
"550 -19 OFFCURVE",
"613 -19 CURVE SMOOTH"
);
},
{
closed = 1;
nodes = (
"345 0 LINE",
"345 736 LINE SMOOTH",
"345 839 OFFCURVE",
"345 929 OFFCURVE",
"477 929 CURVE",
"239 994 LINE",
"239 922 LINE",
"153 893 OFFCURVE",
"92 804 OFFCURVE",
"87 665 CURVE",
"87 0 LINE"
);
},
{
closed = 1;
nodes = (
"579 -1 LINE",
"579 816 LINE",
"421 816 LINE",
"421 1 LINE"
);
},
{
closed = 1;
nodes = (
"797 359 LINE",
"797 947 LINE SMOOTH",
"797 1110 OFFCURVE",
"714 1200 OFFCURVE",
"585 1200 CURVE SMOOTH",
"324 1200 LINE SMOOTH",
"251 1200 OFFCURVE",
"169 1234 OFFCURVE",
"139 1253 CURVE",
"49 1018 LINE",
"99 981 OFFCURVE",
"187 944 OFFCURVE",
"257 929 CURVE",
"517 929 LINE SMOOTH",
"644 929 OFFCURVE",
"648 831 OFFCURVE",
"648 735 CURVE SMOOTH",
"648 359 LINE"
);
}
);
width = 1200;
}
);
unicode = 20AA;
}
{
color = 10;
glyphname = percent;
layers = (
{
layerId = master01;
paths = (
{
closed = 1;
nodes = (
"1074 1036 LINE",
"1024 1106 LINE",
"136 376 LINE",
"186 306 LINE"
);
},
{
closed = 1;
nodes = (
"1018 -20 OFFCURVE",
"1142 108 OFFCURVE",
"1142 302 CURVE SMOOTH",
"1142 497 OFFCURVE",
"1018 626 OFFCURVE",
"830 626 CURVE SMOOTH",
"641 626 OFFCURVE",
"516 497 OFFCURVE",
"516 302 CURVE SMOOTH",
"516 108 OFFCURVE",
"641 -20 OFFCURVE",
"830 -20 CURVE SMOOTH"
);
},
{
closed = 1;
nodes = (
"696 70 OFFCURVE",
"608 162 OFFCURVE",
"608 302 CURVE SMOOTH",
"608 443 OFFCURVE",
"696 536 OFFCURVE",
"830 536 CURVE SMOOTH",
"963 536 OFFCURVE",
"1050 443 OFFCURVE",
"1050 302 CURVE SMOOTH",
"1050 162 OFFCURVE",
"963 70 OFFCURVE",
"830 70 CURVE SMOOTH"
);
},
{
closed = 1;
nodes = (
"580 793 OFFCURVE",
"704 921 OFFCURVE",
"704 1115 CURVE SMOOTH",
"704 1310 OFFCURVE",
"580 1439 OFFCURVE",
"392 1439 CURVE SMOOTH",
"203 1439 OFFCURVE",
"78 1310 OFFCURVE",
"78 1115 CURVE SMOOTH",
"78 921 OFFCURVE",
"203 793 OFFCURVE",
"392 793 CURVE SMOOTH"
);
},
{
closed = 1;
nodes = (
"258 883 OFFCURVE",
"170 975 OFFCURVE",
"170 1115 CURVE SMOOTH",
"170 1256 OFFCURVE",
"258 1349 OFFCURVE",
"392 1349 CURVE SMOOTH",
"525 1349 OFFCURVE",
"612 1256 OFFCURVE",
"612 1115 CURVE SMOOTH",
"612 975 OFFCURVE",
"525 883 OFFCURVE",
"392 883 CURVE SMOOTH"
);
}
);
width = 1200;
},
{
layerId = "1F90C004-9C90-48FA-B407-176B3E9F1E65";
paths = (
{
closed = 1;
nodes = (
"1116 976 LINE",
"1024 1106 LINE",
"94 442 LINE",
"186 306 LINE"
);
},
{
closed = 1;
nodes = (
"1042 -20 OFFCURVE",
"1166 108 OFFCURVE",
"1166 302 CURVE SMOOTH",
"1166 498 OFFCURVE",
"1042 626 OFFCURVE",
"854 626 CURVE SMOOTH",
"664 626 OFFCURVE",
"540 498 OFFCURVE",
"540 302 CURVE SMOOTH",
"540 108 OFFCURVE",
"664 -20 OFFCURVE",
"854 -20 CURVE SMOOTH"
);
},
{
closed = 1;
nodes = (
"773 143 OFFCURVE",
"721 207 OFFCURVE",
"721 302 CURVE SMOOTH",
"721 399 OFFCURVE",
"773 463 OFFCURVE",
"854 463 CURVE SMOOTH",
"933 463 OFFCURVE",
"985 399 OFFCURVE",
"985 302 CURVE SMOOTH",
"985 207 OFFCURVE",
"933 143 OFFCURVE",
"854 143 CURVE SMOOTH"
);
},
{
closed = 1;
nodes = (
"556 794 OFFCURVE",
"680 922 OFFCURVE",
"680 1116 CURVE SMOOTH",
"680 1316 OFFCURVE",
"556 1440 OFFCURVE",
"368 1440 CURVE SMOOTH",
"178 1440 OFFCURVE",
"54 1312 OFFCURVE",
"54 1116 CURVE SMOOTH",
"54 922 OFFCURVE",
"178 794 OFFCURVE",
"368 794 CURVE SMOOTH"
);
},
{
closed = 1;
nodes = (
"287 957 OFFCURVE",
"235 1021 OFFCURVE",
"235 1116 CURVE SMOOTH",
"235 1215 OFFCURVE",
"287 1279 OFFCURVE",
"368 1279 CURVE SMOOTH",
"447 1279 OFFCURVE",
"499 1215 OFFCURVE",
"499 1116 CURVE SMOOTH",
"499 1021 OFFCURVE",
"447 957 OFFCURVE",
"368 957 CURVE SMOOTH"
);
}
);
width = 1200;
},
{
layerId = "8E053A5E-67DA-4970-A6F5-068DBFE5AD21";
paths = (
{
closed = 1;
nodes = (
"1135 951 LINE",
"1018 1106 LINE",
"63 467 LINE",
"180 306 LINE"
);
},
{
closed = 1;
nodes = (
"1053 -20 OFFCURVE",
"1180 108 OFFCURVE",
"1180 302 CURVE SMOOTH",
"1180 498 OFFCURVE",
"1053 626 OFFCURVE",
"860 626 CURVE SMOOTH",
"665 626 OFFCURVE",
"538 498 OFFCURVE",
"538 302 CURVE SMOOTH",
"538 108 OFFCURVE",
"665 -20 OFFCURVE",
"860 -20 CURVE SMOOTH"
);
},
{
closed = 1;
nodes = (
"799 193 OFFCURVE",
"760 237 OFFCURVE",
"760 302 CURVE SMOOTH",
"760 369 OFFCURVE",
"799 413 OFFCURVE",
"860 413 CURVE SMOOTH",
"919 413 OFFCURVE",
"958 369 OFFCURVE",
"958 302 CURVE SMOOTH",
"958 237 OFFCURVE",
"919 193 OFFCURVE",
"860 193 CURVE SMOOTH"
);
},
{
closed = 1;
nodes = (
"547 794 OFFCURVE",
"674 922 OFFCURVE",
"674 1116 CURVE SMOOTH",
"674 1313 OFFCURVE",
"547 1440 OFFCURVE",
"354 1440 CURVE SMOOTH",
"159 1440 OFFCURVE",
"32 1312 OFFCURVE",
"32 1116 CURVE SMOOTH",
"32 922 OFFCURVE",
"159 794 OFFCURVE",
"354 794 CURVE SMOOTH"
);
},
{
closed = 1;
nodes = (
"293 1007 OFFCURVE",
"254 1051 OFFCURVE",
"254 1116 CURVE SMOOTH",
"254 1183 OFFCURVE",
"293 1227 OFFCURVE",
"354 1227 CURVE SMOOTH",
"413 1227 OFFCURVE",
"452 1183 OFFCURVE",
"452 1116 CURVE SMOOTH",
"452 1051 OFFCURVE",
"413 1007 OFFCURVE",
"354 1007 CURVE SMOOTH"
);
}
);
width = 1200;
}
);
unicode = 0025;
}
{
color = 10;
glyphname = parenright;
layers = (
{
layerId = master01;
paths = (
{
closed = 1;
nodes = (
"254 -200 LINE SMOOTH",
"671 -200 OFFCURVE",
"910 133 OFFCURVE",
"910 716 CURVE SMOOTH",
"910 1291 OFFCURVE",
"671 1620 OFFCURVE",
"254 1620 CURVE SMOOTH",
"226 1620 LINE",
"226 1530 LINE",
"254 1530 LINE SMOOTH",
"612 1530 OFFCURVE",
"814 1232 OFFCURVE",
"814 716 CURVE SMOOTH",
"814 192 OFFCURVE",
"612 -110 OFFCURVE",
"254 -110 CURVE SMOOTH",
"226 -110 LINE",
"226 -200 LINE"
);
}
);
width = 1200;
},
{
guideLines = (
{
angle = 90;
position = "{202, 812}";
}
);
layerId = "1F90C004-9C90-48FA-B407-176B3E9F1E65";
paths = (
{
closed = 1;
nodes = (
"250 -200 LINE SMOOTH",
"684 -200 OFFCURVE",
"934 133 OFFCURVE",
"934 716 CURVE SMOOTH",
"934 1291 OFFCURVE",
"684 1620 OFFCURVE",
"250 1620 CURVE SMOOTH",
"202 1620 LINE",
"202 1440 LINE",
"230 1440 LINE SMOOTH",
"546 1440 OFFCURVE",
"724 1175 OFFCURVE",
"724 716 CURVE SMOOTH",
"724 249 OFFCURVE",
"546 -20 OFFCURVE",
"230 -20 CURVE SMOOTH",
"202 -20 LINE",
"202 -200 LINE"
);
}
);
width = 1200;
},
{
layerId = "8E053A5E-67DA-4970-A6F5-068DBFE5AD21";
paths = (
{
closed = 1;
nodes = (
"229 -200 LINE SMOOTH",
"687 -200 OFFCURVE",
"950 133 OFFCURVE",
"950 716 CURVE SMOOTH",
"950 1291 OFFCURVE",
"687 1620 OFFCURVE",
"229 1620 CURVE SMOOTH",
"186 1620 LINE",
"186 1369 LINE",
"229 1369 LINE SMOOTH",
"514 1369 OFFCURVE",
"673 1130 OFFCURVE",
"673 716 CURVE SMOOTH",
"673 294 OFFCURVE",
"514 51 OFFCURVE",
"229 51 CURVE SMOOTH",
"186 51 LINE",
"186 -200 LINE"
);
}
);
width = 1200;
}
);
unicode = 0029;
}
{
color = 10;
glyphname = seven;
layers = (
{
layerId = master01;
paths = (
{
closed = 1;
nodes = (
"650 0 LINE",
"1110 1420 LINE",
"1012 1420 LINE",
"552 0 LINE"
);
},
{
closed = 1;
nodes = (
"210 982 LINE",
"210 1390 LINE",
"116 1390 LINE",
"116 982 LINE"
);
},
{
closed = 1;
nodes = (
"1048 1330 LINE",
"1110 1420 LINE",
"116 1420 LINE",
"116 1330 LINE"
);
}
);
width = 1200;
},
{
layerId = "1F90C004-9C90-48FA-B407-176B3E9F1E65";
paths = (
{
closed = 1;
nodes = (
"666 0 LINE",
"1154 1420 LINE",
"925 1420 LINE",
"437 0 LINE"
);
},
{
closed = 1;
nodes = (
"326 922 LINE",
"326 1390 LINE",
"112 1390 LINE",
"112 922 LINE"
);
},
{
closed = 1;
nodes = (
"1012 1230 LINE",
"1154 1420 LINE",
"112 1420 LINE",
"112 1230 LINE"
);
}
);
width = 1200;
},
{
layerId = "8E053A5E-67DA-4970-A6F5-068DBFE5AD21";
paths = (
{
closed = 1;
nodes = (
"716 0 LINE",
"1171 1420 LINE",
"885 1420 LINE",
"447 0 LINE"
);
},
{
closed = 1;
nodes = (
"360 872 LINE",
"360 1390 LINE",
"95 1390 LINE",
"95 872 LINE"
);
},
{
closed = 1;
nodes = (
"1012 1177 LINE",
"1171 1420 LINE",
"95 1420 LINE",
"95 1177 LINE"
);
}
);
width = 1200;
}
);
unicode = 0037;
}
{
color = 10;
glyphname = eight;
layers = (
{
layerId = master01;
paths = (
{
closed = 1;
nodes = (
"893 -20 OFFCURVE",
"1060 123 OFFCURVE",
"1060 370 CURVE SMOOTH",
"1060 626 OFFCURVE",
"893 772 OFFCURVE",
"600 772 CURVE SMOOTH",
"307 772 OFFCURVE",
"140 626 OFFCURVE",
"140 370 CURVE SMOOTH",
"140 123 OFFCURVE",
"307 -20 OFFCURVE",
"600 -20 CURVE SMOOTH"
);
},
{
closed = 1;
nodes = (
"369 70 OFFCURVE",
"236 183 OFFCURVE",
"236 380 CURVE SMOOTH",
"236 585 OFFCURVE",
"369 705 OFFCURVE",
"600 705 CURVE SMOOTH",
"831 705 OFFCURVE",
"964 585 OFFCURVE",
"964 380 CURVE SMOOTH",
"964 183 OFFCURVE",
"831 70 OFFCURVE",
"600 70 CURVE SMOOTH"
);
},
{
closed = 1;
nodes = (
"768 726 LINE",
"768 788 LINE",
"434 788 LINE",
"434 726 LINE"
);
},
{
closed = 1;
nodes = (
"395 795 OFFCURVE",
"276 893 OFFCURVE",
"276 1060 CURVE SMOOTH",
"276 1245 OFFCURVE",
"395 1350 OFFCURVE",
"600 1350 CURVE SMOOTH",
"805 1350 OFFCURVE",
"924 1245 OFFCURVE",
"924 1060 CURVE SMOOTH",
"924 893 OFFCURVE",
"805 795 OFFCURVE",
"600 795 CURVE SMOOTH"
);
},
{
closed = 1;
nodes = (
"867 738 OFFCURVE",
"1020 870 OFFCURVE",
"1020 1100 CURVE SMOOTH",
"1020 1315 OFFCURVE",
"867 1440 OFFCURVE",
"600 1440 CURVE SMOOTH",
"333 1440 OFFCURVE",
"180 1315 OFFCURVE",
"180 1100 CURVE SMOOTH",
"180 870 OFFCURVE",
"333 738 OFFCURVE",
"600 738 CURVE SMOOTH"
);
}
);
width = 1200;
},
{
layerId = "1F90C004-9C90-48FA-B407-176B3E9F1E65";
paths = (
{
closed = 1;
nodes = (
"908 -20 OFFCURVE",
"1084 130 OFFCURVE",
"1084 390 CURVE SMOOTH",
"1084 628 OFFCURVE",
"908 764 OFFCURVE",
"600 764 CURVE SMOOTH",
"292 764 OFFCURVE",
"116 628 OFFCURVE",
"116 390 CURVE SMOOTH",
"116 130 OFFCURVE",
"292 -20 OFFCURVE",
"600 -20 CURVE SMOOTH"
);
},
{
closed = 1;
nodes = (
"425 164 OFFCURVE",
"326 250 OFFCURVE",
"326 400 CURVE SMOOTH",
"326 560 OFFCURVE",
"425 654 OFFCURVE",
"600 654 CURVE SMOOTH",
"775 654 OFFCURVE",
"874 560 OFFCURVE",
"874 400 CURVE SMOOTH",
"874 250 OFFCURVE",
"775 164 OFFCURVE",
"600 164 CURVE SMOOTH"
);
},
{
closed = 1;
nodes = (
"768 706 LINE",
"768 808 LINE",
"434 808 LINE",
"434 706 LINE"
);
},
{
closed = 1;
nodes = (
"451 846 OFFCURVE",
"366 918 OFFCURVE",
"366 1040 CURVE SMOOTH",
"366 1178 OFFCURVE",
"451 1256 OFFCURVE",
"600 1256 CURVE SMOOTH",
"749 1256 OFFCURVE",
"834 1178 OFFCURVE",
"834 1040 CURVE SMOOTH",
"834 918 OFFCURVE",
"749 846 OFFCURVE",
"600 846 CURVE SMOOTH"
);
},
{
closed = 1;
nodes = (
"882 746 OFFCURVE",
"1044 868 OFFCURVE",
"1044 1080 CURVE SMOOTH",
"1044 1308 OFFCURVE",
"882 1440 OFFCURVE",
"600 1440 CURVE SMOOTH",
"318 1440 OFFCURVE",
"156 1308 OFFCURVE",
"156 1080 CURVE SMOOTH",
"156 868 OFFCURVE",
"318 746 OFFCURVE",
"600 746 CURVE SMOOTH"
);
}
);
width = 1200;
},
{
layerId = "8E053A5E-67DA-4970-A6F5-068DBFE5AD21";
paths = (
{
closed = 1;
nodes = (
"919 -20 OFFCURVE",
"1101 130 OFFCURVE",
"1101 390 CURVE SMOOTH",
"1101 628 OFFCURVE",
"919 764 OFFCURVE",
"600 764 CURVE SMOOTH",
"281 764 OFFCURVE",
"99 628 OFFCURVE",
"99 390 CURVE SMOOTH",
"99 130 OFFCURVE",
"281 -20 OFFCURVE",
"600 -20 CURVE SMOOTH"
);
},
{
closed = 1;
nodes = (
"458 232 OFFCURVE",
"377 303 OFFCURVE",
"377 429 CURVE SMOOTH",
"377 553 OFFCURVE",
"458 625 OFFCURVE",
"600 625 CURVE SMOOTH",
"742 625 OFFCURVE",
"823 553 OFFCURVE",
"823 429 CURVE SMOOTH",
"823 303 OFFCURVE",
"742 232 OFFCURVE",
"600 232 CURVE SMOOTH"
);
},
{
closed = 1;
nodes = (
"768 706 LINE",
"768 808 LINE",
"434 808 LINE",
"434 706 LINE"
);
},
{
closed = 1;
nodes = (
"484 875 OFFCURVE",
"417 931 OFFCURVE",
"417 1028 CURVE SMOOTH",
"417 1131 OFFCURVE",
"484 1189 OFFCURVE",
"600 1189 CURVE SMOOTH",
"716 1189 OFFCURVE",
"783 1131 OFFCURVE",
"783 1028 CURVE SMOOTH",
"783 931 OFFCURVE",
"716 875 OFFCURVE",
"600 875 CURVE SMOOTH"
);
},
{
closed = 1;
nodes = (
"893 746 OFFCURVE",
"1061 868 OFFCURVE",
"1061 1080 CURVE SMOOTH",
"1061 1308 OFFCURVE",
"893 1440 OFFCURVE",
"600 1440 CURVE SMOOTH",
"307 1440 OFFCURVE",
"139 1308 OFFCURVE",
"139 1080 CURVE SMOOTH",
"139 868 OFFCURVE",
"307 746 OFFCURVE",
"600 746 CURVE SMOOTH"
);
}
);
width = 1200;
}
);
unicode = 0038;
}
{
color = 10;
glyphname = nine;
layers = (
{
layerId = master01;
paths = (
{
closed = 1;
nodes = (
"773 506 OFFCURVE",
"912 590 OFFCURVE",
"956 738 CURVE",
"1020 738 LINE",
"1058 930 LINE",
"1058 1256 OFFCURVE",
"902 1426 OFFCURVE",
"602 1426 CURVE SMOOTH",
"298 1426 OFFCURVE",
"140 1264 OFFCURVE",
"140 956 CURVE SMOOTH",
"140 670 OFFCURVE",
"300 506 OFFCURVE",
"584 506 CURVE SMOOTH"
);
},
{
closed = 1;
nodes = (
"802 6 OFFCURVE",
"1058 272 OFFCURVE",
"1058 782 CURVE SMOOTH",
"1058 930 LINE",
"965 873 LINE",
"964 740 LINE",
"964 312 OFFCURVE",
"733 91 OFFCURVE",
"261 70 CURVE",
"270 -20 LINE"
);
},
{
closed = 1;
nodes = (
"360 596 OFFCURVE",
"236 726 OFFCURVE",
"236 956 CURVE SMOOTH",
"236 1205 OFFCURVE",
"358 1336 OFFCURVE",
"590 1336 CURVE SMOOTH",
"823 1336 OFFCURVE",
"962 1199 OFFCURVE",
"962 966 CURVE SMOOTH",
"962 730 OFFCURVE",
"825 596 OFFCURVE",
"584 596 CURVE SMOOTH"
);
}
);
width = 1200;
},
{
layerId = "1F90C004-9C90-48FA-B407-176B3E9F1E65";
paths = (
{
closed = 1;
nodes = (
"676 506 OFFCURVE",
"802 590 OFFCURVE",
"842 738 CURVE",
"916 738 LINE",
"1082 920 LINE",
"1082 1267 OFFCURVE",
"931 1426 OFFCURVE",
"602 1426 CURVE SMOOTH",
"297 1426 OFFCURVE",
"116 1248 OFFCURVE",
"116 946 CURVE SMOOTH",
"116 666 OFFCURVE",
"256 506 OFFCURVE",
"504 506 CURVE SMOOTH"
);
},
{
closed = 1;
nodes = (
"810 8 OFFCURVE",
"1082 290 OFFCURVE",
"1082 832 CURVE SMOOTH",
"1082 920 LINE",
"860 854 LINE",
"860 740 LINE SMOOTH",
"860 376 OFFCURVE",
"652 188 OFFCURVE",
"226 170 CURVE",
"246 -20 LINE"
);
},
{
closed = 1;
nodes = (
"416 690 OFFCURVE",
"326 782 OFFCURVE",
"326 946 CURVE SMOOTH",
"326 1132 OFFCURVE",
"426 1242 OFFCURVE",
"595 1242 CURVE SMOOTH",
"767 1242 OFFCURVE",
"868 1139 OFFCURVE",
"868 966 CURVE SMOOTH",
"868 790 OFFCURVE",
"764 690 OFFCURVE",
"579 690 CURVE SMOOTH"
);
}
);
width = 1200;
},
{
layerId = "8E053A5E-67DA-4970-A6F5-068DBFE5AD21";
paths = (
{
closed = 1;
nodes = (
"643 506 OFFCURVE",
"756 590 OFFCURVE",
"792 738 CURVE",
"874 738 LINE",
"1099 920 LINE",
"1099 1238 OFFCURVE",
"914 1426 OFFCURVE",
"600 1426 CURVE SMOOTH",
"280 1426 OFFCURVE",
"99 1254 OFFCURVE",
"99 958 CURVE SMOOTH",
"99 670 OFFCURVE",
"239 506 OFFCURVE",
"487 506 CURVE SMOOTH"
);
},
{
closed = 1;
nodes = (
"816 8 OFFCURVE",
"1099 287 OFFCURVE",
"1099 825 CURVE SMOOTH",
"1099 920 LINE",
"818 822 LINE",
"818 740 LINE",
"818 416 OFFCURVE",
"619 249 OFFCURVE",
"209 232 CURVE",
"229 -20 LINE"
);
},
{
closed = 1;
nodes = (
"455 757 OFFCURVE",
"378 829 OFFCURVE",
"378 958 CURVE SMOOTH",
"378 1096 OFFCURVE",
"458 1174 OFFCURVE",
"598 1174 CURVE SMOOTH",
"738 1174 OFFCURVE",
"820 1099 OFFCURVE",
"820 971 CURVE SMOOTH",
"820 835 OFFCURVE",
"738 757 OFFCURVE",
"594 757 CURVE SMOOTH"
);
}
);
width = 1200;
}
);
unicode = 0039;
}
{
color = 10;
glyphname = A;
layers = (
{
anchors = (
{
name = bottom;
position = "{600, 0}";
},
{
name = ogonek;
position = "{1080, 10}";
},
{
name = top;
position = "{600, 1420}";
}
);
layerId = master01;
paths = (
{
closed = 1;
nodes = (
"169 0 LINE",
"595 1333 LINE",
"605 1333 LINE",
"1031 0 LINE",
"1131 0 LINE",
"669 1420 LINE",
"531 1420 LINE",
"69 0 LINE"
);
},
{
closed = 1;
nodes = (
"955 396 LINE",
"955 486 LINE",
"235 486 LINE",
"235 396 LINE"
);
}
);
width = 1200;
},
{
anchors = (
{
name = bottom;
position = "{600, 0}";
},
{
name = ogonek;
position = "{1080, 10}";
},
{
name = top;
position = "{600, 1420}";
}
);
layerId = "1F90C004-9C90-48FA-B407-176B3E9F1E65";
paths = (
{
closed = 1;
nodes = (
"255 0 LINE",
"591 1248 LINE",
"609 1248 LINE",
"945 0 LINE",
"1155 0 LINE",
"745 1420 LINE",
"455 1420 LINE",
"45 0 LINE"
);
},
{
closed = 1;
nodes = (
"955 346 LINE",
"955 536 LINE",
"235 536 LINE",
"235 346 LINE"
);
}
);
width = 1200;
},
{
anchors = (
{
name = bottom;
position = "{600, 0}";
},
{
name = ogonek;
position = "{1080, 10}";
},
{
name = top;
position = "{600, 1420}";
}
);
layerId = "8E053A5E-67DA-4970-A6F5-068DBFE5AD21";
paths = (
{
closed = 1;
nodes = (
"313 0 LINE",
"591 1073 LINE",
"609 1073 LINE",
"887 0 LINE",
"1172 0 LINE",
"762 1420 LINE",
"438 1420 LINE",
"28 0 LINE"
);
},
{
closed = 1;
nodes = (
"955 269 LINE",
"955 513 LINE",
"235 513 LINE",
"235 269 LINE"
);
}
);
width = 1200;
}
);
unicode = 0041;
}
{
color = 10;
glyphname = E;
layers = (
{
anchors = (
{
name = bottom;
position = "{630, 0}";
},
{
name = ogonek;
position = "{1080, 10}";
},
{
name = top;
position = "{630, 1420}";
},
{
name = topleft;
position = "{20, 1420}";
}
);
layerId = master01;
paths = (
{
closed = 1;
nodes = (
"278 0 LINE",
"278 1420 LINE",
"184 1420 LINE",
"184 0 LINE"
);
},
{
closed = 1;
nodes = (
"1076 0 LINE",
"1076 90 LINE",
"184 90 LINE",
"184 0 LINE"
);
},
{
closed = 1;
nodes = (
"896 666 LINE",
"896 756 LINE",
"184 756 LINE",
"184 666 LINE"
);
},
{
closed = 1;
nodes = (
"1076 1330 LINE",
"1076 1420 LINE",
"184 1420 LINE",
"184 1330 LINE"
);
}
);
width = 1200;
},
{
anchors = (
{
name = bottom;
position = "{630, 0}";
},
{
name = ogonek;
position = "{1080, 10}";
},
{
name = top;
position = "{630, 1420}";
},
{
name = topleft;
position = "{20, 1420}";
}
);
layerId = "1F90C004-9C90-48FA-B407-176B3E9F1E65";
paths = (
{
closed = 1;
nodes = (
"368 0 LINE",
"368 1420 LINE",
"160 1420 LINE",
"160 0 LINE"
);
},
{
closed = 1;
nodes = (
"1100 0 LINE",
"1100 190 LINE",
"160 190 LINE",
"160 0 LINE"
);
},
{
closed = 1;
nodes = (
"920 616 LINE",
"920 806 LINE",
"160 806 LINE",
"160 616 LINE"
);
},
{
closed = 1;
nodes = (
"1100 1230 LINE",
"1100 1420 LINE",
"160 1420 LINE",
"160 1230 LINE"
);
}
);
width = 1200;
},
{
anchors = (
{
name = bottom;
position = "{630, 0}";
},
{
name = ogonek;
position = "{1080, 10}";
},
{
name = top;
position = "{630, 1420}";
},
{
name = topleft;
position = "{20, 1420}";
}
);
layerId = "8E053A5E-67DA-4970-A6F5-068DBFE5AD21";
paths = (
{
closed = 1;
nodes = (
"407 0 LINE",
"407 1420 LINE",
"143 1420 LINE",
"143 0 LINE"
);
},
{
closed = 1;
nodes = (
"1117 0 LINE",
"1117 243 LINE",
"143 243 LINE",
"143 0 LINE"
);
},
{
closed = 1;
nodes = (
"937 589 LINE",
"937 833 LINE",
"143 833 LINE",
"143 589 LINE"
);
},
{
closed = 1;
nodes = (
"1117 1177 LINE",
"1117 1420 LINE",
"143 1420 LINE",
"143 1177 LINE"
);
}
);
width = 1200;
}
);
unicode = 0045;
}
{
color = 10;
glyphname = F;
layers = (
{
anchors = (
{
name = bottom;
position = "{660, 0}";
},
{
name = top;
position = "{660, 1420}";
}
);
layerId = master01;
paths = (
{
closed = 1;
nodes = (
"298 0 LINE",
"298 1420 LINE",
"204 1420 LINE",
"204 0 LINE"
);
},
{
closed = 1;
nodes = (
"956 606 LINE",
"956 696 LINE",
"204 696 LINE",
"204 606 LINE"
);
},
{
closed = 1;
nodes = (
"1096 1330 LINE",
"1096 1420 LINE",
"204 1420 LINE",
"204 1330 LINE"
);
}
);
width = 1200;
},
{
anchors = (
{
name = bottom;
position = "{660, 0}";
},
{
name = top;
position = "{660, 1420}";
}
);
layerId = "1F90C004-9C90-48FA-B407-176B3E9F1E65";
paths = (
{
closed = 1;
nodes = (
"388 0 LINE",
"388 1420 LINE",
"180 1420 LINE",
"180 0 LINE"
);
},
{
closed = 1;
nodes = (
"940 556 LINE",
"940 746 LINE",
"180 746 LINE",
"180 556 LINE"
);
},
{
closed = 1;
nodes = (
"1120 1230 LINE",
"1120 1420 LINE",
"180 1420 LINE",
"180 1230 LINE"
);
}
);
width = 1200;
},
{
anchors = (
{
name = bottom;
position = "{660, 0}";
},
{
name = top;
position = "{660, 1420}";
}
);
layerId = "8E053A5E-67DA-4970-A6F5-068DBFE5AD21";
paths = (
{
closed = 1;
nodes = (
"427 0 LINE",
"427 1420 LINE",
"163 1420 LINE",
"163 0 LINE"
);
},
{
closed = 1;
nodes = (
"940 529 LINE",
"940 774 LINE",
"163 774 LINE",
"163 529 LINE"
);
},
{
closed = 1;
nodes = (
"1137 1177 LINE",
"1137 1420 LINE",
"163 1420 LINE",
"163 1177 LINE"
);
}
);
width = 1200;
}
);
unicode = 0046;
}
{
color = 10;
glyphname = i;
layers = (
{
anchors = (
{
name = bottom;
position = "{670, 0}";
},
{
name = top;
position = "{658, 1480}";
}
);
layerId = master01;
paths = (
{
closed = 1;
nodes = (
"717 0 LINE",
"717 1012 LINE",
"623 1012 LINE",
"623 0 LINE"
);
},
{
closed = 1;
nodes = (
"644 0 LINE",
"644 90 LINE",
"184 90 LINE",
"184 0 LINE"
);
},
{
closed = 1;
nodes = (
"1078 0 LINE",
"1078 90 LINE",
"696 90 LINE",
"696 0 LINE"
);
},
{
closed = 1;
nodes = (
"717 970 LINE",
"717 1060 LINE",
"244 1060 LINE",
"244 970 LINE"
);
},
{
closed = 1;
nodes = (
"713 1323 OFFCURVE",
"758 1367 OFFCURVE",
"758 1422 CURVE SMOOTH",
"758 1477 OFFCURVE",
"713 1522 OFFCURVE",
"658 1522 CURVE SMOOTH",
"603 1522 OFFCURVE",
"558 1477 OFFCURVE",
"558 1422 CURVE SMOOTH",
"558 1367 OFFCURVE",
"603 1323 OFFCURVE",
"658 1323 CURVE SMOOTH"
);
}
);
width = 1200;
},
{
anchors = (
{
name = bottom;
position = "{670, 0}";
},
{
name = top;
position = "{658, 1480}";
}
);
layerId = "1F90C004-9C90-48FA-B407-176B3E9F1E65";
paths = (
{
closed = 1;
nodes = (
"776 0 LINE",
"776 1000 LINE",
"564 1000 LINE",
"564 0 LINE"
);
},
{
closed = 1;
nodes = (
"584 0 LINE",
"584 186 LINE",
"160 186 LINE",
"160 0 LINE"
);
},
{
closed = 1;
nodes = (
"1102 0 LINE",
"1102 186 LINE",
"756 186 LINE",
"756 0 LINE"
);
},
{
closed = 1;
nodes = (
"776 874 LINE",
"776 1060 LINE",
"220 1060 LINE",
"220 874 LINE"
);
},
{
closed = 1;
nodes = (
"745 1228 OFFCURVE",
"811 1294 OFFCURVE",
"811 1376 CURVE SMOOTH",
"811 1458 OFFCURVE",
"745 1524 OFFCURVE",
"663 1524 CURVE SMOOTH",
"581 1524 OFFCURVE",
"515 1458 OFFCURVE",
"515 1376 CURVE SMOOTH",
"515 1294 OFFCURVE",
"581 1228 OFFCURVE",
"663 1228 CURVE SMOOTH"
);
}
);
width = 1200;
},
{
anchors = (
{
name = bottom;
position = "{670, 0}";
},
{
name = top;
position = "{653, 1480}";
}
);
layerId = "8E053A5E-67DA-4970-A6F5-068DBFE5AD21";
paths = (
{
closed = 1;
nodes = (
"805 0 LINE",
"805 1000 LINE",
"535 1000 LINE",
"535 0 LINE"
);
},
{
closed = 1;
nodes = (
"555 0 LINE",
"555 250 LINE",
"143 250 LINE",
"143 0 LINE"
);
},
{
closed = 1;
nodes = (
"1119 0 LINE",
"1119 250 LINE",
"785 250 LINE",
"785 0 LINE"
);
},
{
closed = 1;
nodes = (
"805 810 LINE",
"805 1060 LINE",
"203 1060 LINE",
"203 810 LINE"
);
},
{
closed = 1;
nodes = (
"761 1203 OFFCURVE",
"831 1273 OFFCURVE",
"831 1376 CURVE SMOOTH",
"831 1479 OFFCURVE",
"761 1549 OFFCURVE",
"658 1549 CURVE SMOOTH",
"555 1549 OFFCURVE",
"485 1479 OFFCURVE",
"485 1376 CURVE SMOOTH",
"485 1273 OFFCURVE",
"555 1203 OFFCURVE",
"658 1203 CURVE SMOOTH"
);
}
);
width = 1200;
}
);
unicode = 0069;
}
{
color = 10;
glyphname = x;
layers = (
{
anchors = (
{
name = bottom;
position = "{600, 0}";
},
{
name = top;
position = "{600, 1060}";
}
);
layerId = master01;
paths = (
{
closed = 1;
nodes = (
"248 0 LINE",
"632 492 LINE",
"1070 1060 LINE",
"952 1060 LINE",
"572 560 LINE",
"130 0 LINE"
);
},
{
closed = 1;
nodes = (
"1070 0 LINE",
"633 565 LINE",
"248 1060 LINE",
"130 1060 LINE",
"571 497 LINE",
"952 0 LINE"
);
}
);
width = 1200;
},
{
anchors = (
{
name = bottom;
position = "{600, 0}";
},
{
name = top;
position = "{600, 1060}";
}
);
layerId = "1F90C004-9C90-48FA-B407-176B3E9F1E65";
paths = (
{
closed = 1;
nodes = (
"346 0 LINE",
"656 458 LINE",
"1094 1060 LINE",
"854 1060 LINE",
"528 584 LINE",
"106 0 LINE"
);
},
{
closed = 1;
nodes = (
"1094 0 LINE",
"672 584 LINE",
"346 1060 LINE",
"106 1060 LINE",
"532 458 LINE",
"854 0 LINE"
);
}
);
width = 1200;
},
{
anchors = (
{
name = bottom;
position = "{600, 0}";
},
{
name = top;
position = "{600, 1060}";
}
);
layerId = "8E053A5E-67DA-4970-A6F5-068DBFE5AD21";
paths = (
{
closed = 1;
nodes = (
"404 0 LINE",
"664 450 LINE",
"1119 1060 LINE",
"796 1060 LINE",
"520 592 LINE",
"81 0 LINE"
);
},
{
closed = 1;
nodes = (
"1119 0 LINE",
"680 592 LINE",
"404 1060 LINE",
"81 1060 LINE",
"524 450 LINE",
"796 0 LINE"
);
}
);
width = 1200;
}
);
unicode = 0078;
}
{
color = 10;
glyphname = endash;
layers = (
{
layerId = master01;
paths = (
{
closed = 1;
nodes = (
"1130 664 LINE",
"1130 754 LINE",
"70 754 LINE",
"70 664 LINE"
);
}
);
width = 1200;
},
{
layerId = "1F90C004-9C90-48FA-B407-176B3E9F1E65";
paths = (
{
closed = 1;
nodes = (
"1130 616 LINE",
"1130 802 LINE",
"70 802 LINE",
"70 616 LINE"
);
}
);
width = 1200;
},
{
layerId = "8E053A5E-67DA-4970-A6F5-068DBFE5AD21";
paths = (
{
closed = 1;
nodes = (
"1130 584 LINE",
"1130 834 LINE",
"70 834 LINE",
"70 584 LINE"
);
}
);
width = 1200;
}
);
unicode = 2013;
}
{
color = 10;
glyphname = quoteright;
layers = (
{
layerId = master01;
paths = (
{
closed = 1;
nodes = (
"550 716 LINE SMOOTH",
"714 894 OFFCURVE",
"767 1044 OFFCURVE",
"767 1168 CURVE SMOOTH",
"767 1341 OFFCURVE",
"676 1420 OFFCURVE",
"478 1420 CURVE SMOOTH",
"433 1420 LINE",
"433 1328 LINE",
"478 1328 LINE SMOOTH",
"611 1328 OFFCURVE",
"671 1278 OFFCURVE",
"671 1168 CURVE SMOOTH",
"671 1077 OFFCURVE",
"620 937 OFFCURVE",
"484 782 CURVE SMOOTH",
"456 750 LINE",
"526 690 LINE"
);
}
);
width = 1200;
},
{
layerId = "1F90C004-9C90-48FA-B407-176B3E9F1E65";
paths = (
{
closed = 1;
nodes = (
"625 731 LINE SMOOTH",
"744 860 OFFCURVE",
"800 996 OFFCURVE",
"800 1118 CURVE SMOOTH",
"800 1316 OFFCURVE",
"691 1420 OFFCURVE",
"481 1420 CURVE SMOOTH",
"406 1420 LINE",
"406 1235 LINE",
"451 1235 LINE SMOOTH",
"546 1235 OFFCURVE",
"595 1195 OFFCURVE",
"595 1118 CURVE SMOOTH",
"595 1036 OFFCURVE",
"556 950 OFFCURVE",
"479 867 CURVE SMOOTH",
"419 802 LINE",
"569 670 LINE"
);
}
);
width = 1200;
},
{
layerId = "8E053A5E-67DA-4970-A6F5-068DBFE5AD21";
paths = (
{
closed = 1;
nodes = (
"650 726 LINE SMOOTH",
"757 836 OFFCURVE",
"810 944 OFFCURVE",
"810 1078 CURVE SMOOTH",
"810 1313 OFFCURVE",
"700 1420 OFFCURVE",
"461 1420 CURVE SMOOTH",
"366 1420 LINE",
"366 1160 LINE",
"431 1160 LINE SMOOTH",
"515 1160 OFFCURVE",
"554 1128 OFFCURVE",
"554 1058 CURVE SMOOTH",
"554 1013 OFFCURVE",
"535 970 OFFCURVE",
"489 922 CURVE SMOOTH",
"369 797 LINE",
"551 625 LINE"
);
}
);
width = 1200;
}
);
unicode = 2019;
}
{
color = 10;
glyphname = bullet;
layers = (
{
layerId = master01;
paths = (
{
closed = 1;
nodes = (
"686 554 OFFCURVE",
"756 624 OFFCURVE",
"756 710 CURVE SMOOTH",
"756 796 OFFCURVE",
"686 866 OFFCURVE",
"600 866 CURVE SMOOTH",
"514 866 OFFCURVE",
"444 796 OFFCURVE",
"444 710 CURVE SMOOTH",
"444 624 OFFCURVE",
"514 554 OFFCURVE",
"600 554 CURVE SMOOTH"
);
}
);
width = 1200;
},
{
layerId = "1F90C004-9C90-48FA-B407-176B3E9F1E65";
paths = (
{
closed = 1;
nodes = (
"764 414 OFFCURVE",
"896 546 OFFCURVE",
"896 710 CURVE SMOOTH",
"896 874 OFFCURVE",
"764 1006 OFFCURVE",
"600 1006 CURVE SMOOTH",
"436 1006 OFFCURVE",
"304 874 OFFCURVE",
"304 710 CURVE SMOOTH",
"304 546 OFFCURVE",
"436 414 OFFCURVE",
"600 414 CURVE SMOOTH"
);
}
);
width = 1200;
},
{
layerId = "8E053A5E-67DA-4970-A6F5-068DBFE5AD21";
paths = (
{
closed = 1;
nodes = (
"792 362 OFFCURVE",
"948 518 OFFCURVE",
"948 710 CURVE SMOOTH",
"948 902 OFFCURVE",
"792 1058 OFFCURVE",
"600 1058 CURVE SMOOTH",
"408 1058 OFFCURVE",
"252 902 OFFCURVE",
"252 710 CURVE SMOOTH",
"252 518 OFFCURVE",
"408 362 OFFCURVE",
"600 362 CURVE SMOOTH"
);
}
);
width = 1200;
}
);
unicode = 2022;
}
{
glyphname = "alefdagesh-hb";
layers = (
{
components = (
{
name = "alef-hb";
},
{
name = "dagesh-hb";
transform = "{1, 0, 0, 1, -157, -213}";
}
);
layerId = master01;
width = 1200;
},
{
components = (
{
name = "alef-hb";
},
{
name = "dagesh-hb";
transform = "{1, 0, 0, 1, -151, -170}";
}
);
layerId = "8E053A5E-67DA-4970-A6F5-068DBFE5AD21";
width = 1200;
},
{
components = (
{
name = "alef-hb";
},
{
name = "dagesh-hb";
transform = "{1, 0, 0, 1, -153, -188}";
}
);
layerId = "1F90C004-9C90-48FA-B407-176B3E9F1E65";
width = 1200;
},
{
associatedMasterId = master01;
components = (
{
name = "alef-hb";
}
);
layerId = "E941E052-87FE-424A-9866-4D169A1570DB";
name = "[500]";
paths = (
{
closed = 1;
nodes = (
"493 241 OFFCURVE",
"534 281 OFFCURVE",
"534 331 CURVE SMOOTH",
"534 381 OFFCURVE",
"493 422 OFFCURVE",
"443 422 CURVE SMOOTH",
"393 422 OFFCURVE",
"352 381 OFFCURVE",
"352 331 CURVE SMOOTH",
"352 281 OFFCURVE",
"393 241 OFFCURVE",
"443 241 CURVE SMOOTH"
);
}
);
width = 1200;
},
{
associatedMasterId = "1F90C004-9C90-48FA-B407-176B3E9F1E65";
components = (
{
name = "alef-hb";
}
);
layerId = "E0F64563-CA47-48C5-8CCC-9A2AD4E8A4DE";
name = "[500]";
paths = (
{
closed = 1;
nodes = (
"497 266 OFFCURVE",
"538 306 OFFCURVE",
"538 356 CURVE SMOOTH",
"538 406 OFFCURVE",
"497 447 OFFCURVE",
"447 447 CURVE SMOOTH",
"397 447 OFFCURVE",
"356 406 OFFCURVE",
"356 356 CURVE SMOOTH",
"356 306 OFFCURVE",
"397 266 OFFCURVE",
"447 266 CURVE SMOOTH"
);
}
);
width = 1200;
},
{
associatedMasterId = "8E053A5E-67DA-4970-A6F5-068DBFE5AD21";
components = (
{
name = "alef-hb";
}
);
layerId = "25364285-B084-40EB-9DA5-A6192B0CF476";
name = "[500]";
paths = (
{
closed = 1;
nodes = (
"486.352 306.095 OFFCURVE",
"517.155 336.147 OFFCURVE",
"517.155 373.713 CURVE SMOOTH",
"517.155 411.278 OFFCURVE",
"486.352 442.082 OFFCURVE",
"448.786 442.082 CURVE SMOOTH",
"411.221 442.082 OFFCURVE",
"380.417 411.278 OFFCURVE",
"380.417 373.713 CURVE SMOOTH",
"380.417 336.147 OFFCURVE",
"411.221 306.095 OFFCURVE",
"448.786 306.095 CURVE SMOOTH"
);
}
);
width = 1200;
}
);
unicode = FB30;
}
{
glyphname = "pedagesh-hb";
layers = (
{
components = (
{
name = "pe-hb";
}
);
layerId = master01;
paths = (
{
closed = 1;
nodes = (
"647 748 OFFCURVE",
"688 788 OFFCURVE",
"688 838 CURVE SMOOTH",
"688 888 OFFCURVE",
"647 929 OFFCURVE",
"597 929 CURVE SMOOTH",
"547 929 OFFCURVE",
"506 888 OFFCURVE",
"506 838 CURVE SMOOTH",
"506 788 OFFCURVE",
"547 748 OFFCURVE",
"597 748 CURVE SMOOTH"
);
}
);
width = 1200;
},
{
components = (
{
name = "pe-hb";
}
);
layerId = "8E053A5E-67DA-4970-A6F5-068DBFE5AD21";
paths = (
{
closed = 1;
nodes = (
"695 724 OFFCURVE",
"731 761 OFFCURVE",
"731 806 CURVE SMOOTH",
"731 851 OFFCURVE",
"695 886 OFFCURVE",
"650 886 CURVE SMOOTH",
"605 887 OFFCURVE",
"567 851 OFFCURVE",
"567 806 CURVE SMOOTH",
"567 761 OFFCURVE",
"605 724 OFFCURVE",
"650 724 CURVE SMOOTH"
);
}
);
width = 1200;
},
{
components = (
{
name = "pe-hb";
}
);
layerId = "1F90C004-9C90-48FA-B407-176B3E9F1E65";
paths = (
{
closed = 1;
nodes = (
"684 735 OFFCURVE",
"725 775 OFFCURVE",
"725 825 CURVE SMOOTH",
"725 875 OFFCURVE",
"684 916 OFFCURVE",
"634 916 CURVE SMOOTH",
"584 916 OFFCURVE",
"543 875 OFFCURVE",
"543 825 CURVE SMOOTH",
"543 775 OFFCURVE",
"584 735 OFFCURVE",
"634 735 CURVE SMOOTH"
);
}
);
width = 1200;
},
{
associatedMasterId = "8E053A5E-67DA-4970-A6F5-068DBFE5AD21";
components = (
{
name = "pe-hb";
}
);
layerId = "D61F2FC5-A812-4EC1-A8C9-42EC93E9ED9B";
name = "[600]";
paths = (
{
closed = 1;
nodes = (
"705 334 OFFCURVE",
"741 371 OFFCURVE",
"741 416 CURVE SMOOTH",
"741 461 OFFCURVE",
"705 496 OFFCURVE",
"660 496 CURVE SMOOTH",
"615 497 OFFCURVE",
"577 461 OFFCURVE",
"577 416 CURVE SMOOTH",
"577 371 OFFCURVE",
"615 334 OFFCURVE",
"660 334 CURVE SMOOTH"
);
}
);
width = 1200;
},
{
associatedMasterId = master01;
components = (
{
name = "pe-hb";
}
);
layerId = "6E2B7627-7B06-41E9-9980-2C87A693D266";
name = "[600]";
paths = (
{
closed = 1;
nodes = (
"779 166 OFFCURVE",
"820 206 OFFCURVE",
"820 256 CURVE SMOOTH",
"820 306 OFFCURVE",
"779 347 OFFCURVE",
"729 347 CURVE SMOOTH",
"679 347 OFFCURVE",
"638 306 OFFCURVE",
"638 256 CURVE SMOOTH",
"638 206 OFFCURVE",
"679 166 OFFCURVE",
"729 166 CURVE SMOOTH"
);
}
);
width = 1200;
},
{
associatedMasterId = "1F90C004-9C90-48FA-B407-176B3E9F1E65";
components = (
{
name = "pe-hb";
}
);
layerId = "B128F009-F959-4C8E-84DA-ED7C3147EB4E";
name = "[600]";
paths = (
{
closed = 1;
nodes = (
"722 269 OFFCURVE",
"763 309 OFFCURVE",
"763 359 CURVE SMOOTH",
"763 409 OFFCURVE",
"722 450 OFFCURVE",
"672 450 CURVE SMOOTH",
"622 450 OFFCURVE",
"581 409 OFFCURVE",
"581 359 CURVE SMOOTH",
"581 309 OFFCURVE",
"622 269 OFFCURVE",
"672 269 CURVE SMOOTH"
);
}
);
width = 1200;
}
);
unicode = FB44;
}
{
glyphname = "shindagesh-hb";
layers = (
{
components = (
{
name = "shin-hb";
}
);
layerId = master01;
paths = (
{
closed = 1;
nodes = (
"684 270 OFFCURVE",
"725 310 OFFCURVE",
"725 360 CURVE SMOOTH",
"725 410 OFFCURVE",
"684 451 OFFCURVE",
"634 451 CURVE SMOOTH",
"584 451 OFFCURVE",
"543 410 OFFCURVE",
"543 360 CURVE SMOOTH",
"543 310 OFFCURVE",
"584 270 OFFCURVE",
"634 270 CURVE SMOOTH"
);
}
);
width = 1200;
},
{
components = (
{
name = "shin-hb";
}
);
layerId = "8E053A5E-67DA-4970-A6F5-068DBFE5AD21";
paths = (
{
closed = 1;
nodes = (
"669 321 OFFCURVE",
"702 353 OFFCURVE",
"702 393 CURVE SMOOTH",
"702 433 OFFCURVE",
"668 466 OFFCURVE",
"628 466 CURVE SMOOTH",
"588 466 OFFCURVE",
"556 433 OFFCURVE",
"556 393 CURVE SMOOTH",
"556 353 OFFCURVE",
"589 321 OFFCURVE",
"629 321 CURVE SMOOTH"
);
}
);
width = 1200;
},
{
components = (
{
name = "shin-hb";
}
);
layerId = "1F90C004-9C90-48FA-B407-176B3E9F1E65";
paths = (
{
closed = 1;
nodes = (
"680 289 OFFCURVE",
"721 329 OFFCURVE",
"721 379 CURVE SMOOTH",
"721 429 OFFCURVE",
"680 470 OFFCURVE",
"630 470 CURVE SMOOTH",
"580 470 OFFCURVE",
"539 429 OFFCURVE",
"539 379 CURVE SMOOTH",
"539 329 OFFCURVE",
"580 289 OFFCURVE",
"630 289 CURVE SMOOTH"
);
}
);
width = 1200;
}
);
unicode = FB49;
}
{
glyphname = "shindageshsindot-hb";
layers = (
{
anchors = (
{
name = topleft;
position = "{195, 1200}";
},
{
name = topright;
position = "{923, 1200}";
}
);
components = (
{
name = "shinsindot-hb";
}
);
layerId = master01;
paths = (
{
closed = 1;
nodes = (
"684 270 OFFCURVE",
"725 310 OFFCURVE",
"725 360 CURVE SMOOTH",
"725 410 OFFCURVE",
"684 451 OFFCURVE",
"634 451 CURVE SMOOTH",
"584 451 OFFCURVE",
"543 410 OFFCURVE",
"543 360 CURVE SMOOTH",
"543 310 OFFCURVE",
"584 270 OFFCURVE",
"634 270 CURVE SMOOTH"
);
}
);
width = 1200;
},
{
anchors = (
{
name = topleft;
position = "{262, 1200}";
},
{
name = topright;
position = "{930, 1201}";
}
);
components = (
{
name = "shinsindot-hb";
}
);
layerId = "8E053A5E-67DA-4970-A6F5-068DBFE5AD21";
paths = (
{
closed = 1;
nodes = (
"669 321 OFFCURVE",
"702 353 OFFCURVE",
"702 393 CURVE SMOOTH",
"702 433 OFFCURVE",
"668 466 OFFCURVE",
"628 466 CURVE SMOOTH",
"588 466 OFFCURVE",
"556 433 OFFCURVE",
"556 393 CURVE SMOOTH",
"556 353 OFFCURVE",
"589 321 OFFCURVE",
"629 321 CURVE SMOOTH"
);
}
);
width = 1200;
},
{
anchors = (
{
name = topleft;
position = "{235, 1200}";
},
{
name = topright;
position = "{929, 1201}";
}
);
components = (
{
name = "shinsindot-hb";
}
);
layerId = "1F90C004-9C90-48FA-B407-176B3E9F1E65";
paths = (
{
closed = 1;
nodes = (
"680 289 OFFCURVE",
"721 329 OFFCURVE",
"721 379 CURVE SMOOTH",
"721 429 OFFCURVE",
"680 470 OFFCURVE",
"630 470 CURVE SMOOTH",
"580 470 OFFCURVE",
"539 429 OFFCURVE",
"539 379 CURVE SMOOTH",
"539 329 OFFCURVE",
"580 289 OFFCURVE",
"630 289 CURVE SMOOTH"
);
}
);
width = 1200;
}
);
unicode = FB2D;
}
